<?xml version="1.0" standalone="no"?>
<!DOCTYPE svg PUBLIC "-//W3C//DTD SVG 1.1//EN" "http://www.w3.org/Graphics/SVG/1.1/DTD/svg11.dtd" >
<svg xmlns="http://www.w3.org/2000/svg">
<metadata></metadata>
<defs>
<font id="JOYVILLEMediumRegular" horiz-adv-x="1228" >
<font-face units-per-em="2048" ascent="1536" descent="-512" />
<missing-glyph horiz-adv-x="739" />
<glyph horiz-adv-x="0" />
<glyph horiz-adv-x="2048" />
<glyph unicode=" "  horiz-adv-x="739" />
<glyph unicode="&#x09;" horiz-adv-x="739" />
<glyph unicode="&#xa0;" horiz-adv-x="739" />
<glyph unicode="!" horiz-adv-x="471" d="M61 145q0 47 42 85t102 38t101.5 -38t41.5 -85q0 -61 -41 -102t-102 -41q-62 0 -103 41t-41 102zM61 1251q0 47 42 85t102 38t101.5 -38t41.5 -85q0 -46 -30.5 -343t-30.5 -435q0 -31 -25.5 -56.5t-56.5 -25.5t-56.5 25.5t-25.5 56.5q0 138 -31 435t-31 343z" />
<glyph unicode="#" horiz-adv-x="1392" d="M61 406q0 102 123 102h226l45 205h-230q-33 0 -57.5 16t-24.5 45q0 103 123 103h221l45 225q23 90 82 90q82 0 82 -90l-45 -225h221l46 225q23 90 81 90q82 0 82 -90l-45 -225h213q44 0 63 -15t19 -47q0 -39 -23.5 -70.5t-78.5 -31.5h-225l-41 -205h204q44 0 63 -15 t19 -47q0 -40 -23.5 -73t-78.5 -33h-219l-45 -201q-34 -123 -109 -123q-61 0 -61 82l53 242h-223l-45 -201q-34 -123 -109 -123q-61 0 -61 82l53 246h-238q-33 0 -57.5 16.5t-24.5 45.5zM575 508h220l45 205h-222z" />
<glyph unicode="$" horiz-adv-x="1085" d="M80 360q0 93 54 159.5t130 66.5q56 0 87.5 -19t31.5 -45q0 -35 -25 -39q-32 -6 -52.5 -41.5t-20.5 -81.5q0 -104 77.5 -158.5t190.5 -54.5q123 0 188.5 64.5t65.5 183.5q0 49 -45.5 89t-132.5 81v-266q0 -29 -14.5 -40t-47.5 -11q-34 0 -66 31t-32 83v279 q-64 29 -110 52.5t-98 58.5t-84 70.5t-53.5 83.5t-21.5 102q0 163 89.5 262.5t261.5 122.5q-21 53 -21 106q0 52 19 98q40 103 84 103q10 0 16 -2q25 -10 34 -37.5t8.5 -62t1 -70t19 -66.5t54.5 -45q26 -7 61 -20t81.5 -39t84 -56.5t64 -75.5t26.5 -93q0 -104 -54.5 -154.5 t-150.5 -50.5q-53 0 -53 30q0 14 14.5 31.5t28.5 44t14 62.5q0 139 -229 139q-104 0 -165.5 -52.5t-61.5 -131.5q0 -91 141 -170v213q0 33 16 57.5t45 24.5q43 0 73 -47t30 -97v-233q49 -24 80.5 -40t76.5 -41.5t74 -47t61.5 -51t51 -58.5t31 -65t12.5 -74 q0 -182 -93.5 -289.5t-267.5 -132.5q17 -47 17 -98q0 -50 -17 -99q-40 -102 -84 -102q-10 0 -16 2q-25 10 -34 38t-8.5 62.5t-1 70.5t-19 67t-54.5 45q-65 16 -127 48t-116 78t-86.5 110.5t-32.5 137.5z" />
<glyph unicode="%" horiz-adv-x="1699" d="M61 1071q0 138 95 233t233 95q140 0 234 -98t94 -250q0 -138 -95 -233t-233 -95q-140 0 -234 98t-94 250zM266 1051q0 -95 31.5 -150t91.5 -55q61 0 92 58t31 167q0 95 -31.5 150t-91.5 55q-61 0 -92 -58t-31 -167zM369 47q0 20 18 38.5t43 35t60.5 56.5t62.5 95 q1 3 49 98.5t83 166.5t92.5 188t97.5 201.5t77.5 166.5t51.5 121q29 57 69.5 97.5t80.5 57.5t67.5 23.5t48.5 6.5q25 0 35 -1.5t18 -10.5t8 -29t-18 -38.5t-43 -35t-60.5 -56.5t-62.5 -95q-27 -45 -128.5 -253.5t-213.5 -442t-129 -267.5q-45 -75 -114 -119.5t-132 -44.5 q-29 0 -45 12.5t-16 28.5zM983 354q0 152 94 250t234 98t233.5 -98t93.5 -250t-93.5 -250t-233.5 -98q-136 0 -232 104t-96 244zM1188 354q0 -95 31.5 -149.5t91.5 -54.5t91.5 54.5t31.5 149.5t-31.5 150t-91.5 55t-91.5 -55t-31.5 -150z" />
<glyph unicode="&#x26;" horiz-adv-x="1742" d="M61 492q0 131 79.5 247.5t207.5 182.5q0 122 32 217.5t88.5 154.5t130 89t159.5 30q151 0 239 -80.5t88 -206.5q0 -92 -66.5 -158.5t-158.5 -66.5q-42 0 -72 22t-30 40q0 20 20 20q123 30 123 123q0 62 -40.5 102.5t-102.5 40.5q-92 0 -148.5 -68.5t-56.5 -176.5 q0 -82 49.5 -182t126 -189t159 -163.5t156.5 -121.5q21 -20 41 -20q62 62 62 164q0 49 -26 77t-63.5 36.5t-94.5 8.5q-31 0 -56.5 13t-25.5 28q0 30 14.5 48t46.5 34q26 20 63.5 44.5t78 55t104.5 85.5q137 102 246 102q106 0 175.5 -65.5t69.5 -159.5q0 -79 -54.5 -142 t-129.5 -63q-43 0 -83 22t-40 39q0 11 3.5 16t17.5 5q28 9 42.5 21t16.5 19.5t2 20.5q0 35 -20 58.5t-62 23.5q-32 0 -71 -21t-113 -81q76 -15 120 -71.5t44 -133.5q0 -25 -4 -47t-8 -37t-17.5 -39t-21.5 -36.5t-31.5 -47t-36.5 -53.5q44 -35 158.5 -56.5t171.5 -21.5 q20 0 46 1t33 1q30 0 37 -12q2 -4 2 -14q0 -19 -14 -42t-43 -46.5t-84.5 -39.5t-126.5 -16q-84 0 -164.5 23t-204.5 73q-165 -102 -376 -102q-117 0 -225.5 34t-193.5 95.5t-136.5 156t-51.5 206.5zM285 553q0 -95 50.5 -184.5t142.5 -148t200 -58.5q50 0 78 1.5t70.5 11.5 t74.5 30q-113 78 -182 132.5t-133.5 122t-109.5 142t-87 176.5q-104 -86 -104 -225z" />
<glyph unicode="(" horiz-adv-x="780" d="M61 614q0 125 28 249.5t73.5 222.5t100 188t109 155t100 113t73.5 72l28 24q6 6 17 14t34.5 17.5t45.5 9.5q29 0 39 -14t10 -43q0 -12 -32 -58t-80 -108.5t-104 -156.5t-104 -195t-80 -231.5t-32 -258.5q0 -152 44.5 -305.5t108 -268.5t127 -207.5t108 -152t44.5 -73.5 q0 -29 -10 -43.5t-39 -14.5q-22 0 -45.5 9.5t-34.5 17.5t-17 14q-11 9 -29.5 25t-71.5 70.5t-101.5 114.5t-107.5 153t-101.5 189.5t-71.5 221.5t-29 250z" />
<glyph unicode=")" horiz-adv-x="780" d="M61 -393q0 12 32 57.5t80 108.5t104.5 156.5t104.5 194.5t80 231.5t32 258.5t-32 258.5t-80 231.5t-104.5 195t-104.5 156.5t-80 108.5t-32 58q0 29 10.5 43t39.5 14q22 0 45.5 -9.5t34 -17.5t16.5 -14q11 -9 29.5 -25t71.5 -70.5t101.5 -114.5t107.5 -153t101.5 -189.5 t71.5 -221.5t29 -250t-28 -249.5t-73.5 -222.5t-100 -188t-109 -155t-100 -113t-73.5 -72l-28 -24q-6 -6 -16.5 -14t-34 -17.5t-45.5 -9.5q-29 0 -39.5 14.5t-10.5 43.5z" />
<glyph unicode="*" horiz-adv-x="1015" d="M62.5 737q5.5 47 43.5 74q23 15 54 25t103 28.5t128 34.5q24 4 37 -16q6 -8 6 -19.5t-8 -15.5q-39 -45 -75.5 -95.5t-58.5 -78t-44 -41.5q-56 -32 -98.5 -23t-67.5 47q-25 33 -19.5 80zM62.5 1104q-5.5 47 19.5 80q25 38 67.5 47t98.5 -23q22 -14 44 -41.5t58.5 -78 t75.5 -95.5q8 -4 8 -15.5t-6 -19.5q-13 -20 -37 -16q-49 14 -104 28.5t-82 21.5t-54 16.5t-45 21.5q-38 27 -43.5 74zM391 541q0 27 11 60t33 91.5t38 114.5q0 10 9.5 16t19.5 6t20 -6.5t13 -15.5q15 -49 33 -103t26.5 -80t15 -54t6.5 -50q0 -47 -34 -75.5t-80 -28.5 q-45 0 -78 32t-33 93zM391 1300q0 61 33 93t78 32q46 0 80 -28.5t34 -75.5q0 -28 -8 -59t-32 -102t-41 -126q-3 -9 -13 -15.5t-20 -6.5t-19.5 6t-9.5 16q-16 56 -38 114.5t-33 91.5t-11 60zM582 863.5q0 11.5 6 19.5q13 20 37 16q49 -14 104 -28.5t81.5 -21.5t53.5 -16.5 t45 -21.5q38 -27 44 -74t-19 -80q-25 -38 -67.5 -47t-98.5 23q-22 14 -44 41.5t-58.5 78t-75.5 95.5q-8 4 -8 15.5zM582 977.5q0 11.5 8 15.5q39 45 75.5 95.5t58.5 78t44 41.5q56 32 98.5 23t67.5 -47q25 -33 19 -80t-44 -74q-18 -12 -45 -21.5t-53.5 -16.5t-81.5 -21.5 t-104 -28.5q-24 -4 -37 16q-6 8 -6 19.5z" />
<glyph unicode="," horiz-adv-x="425" d="M61 125q0 61 42 103t104 42q68 0 113 -50t45 -124q0 -45 -26 -102.5t-72.5 -101.5t-96.5 -44q-16 0 -33.5 14t-17.5 32q0 29 27 57t28 51q-45 0 -79 38t-34 85z" />
<glyph unicode="-" horiz-adv-x="839" d="M61 586q0 43 47 72.5t97 29.5h491q33 0 57.5 -16t24.5 -45q0 -36 -33.5 -69.5t-89.5 -33.5h-512q-33 0 -57.5 16.5t-24.5 45.5z" />
<glyph unicode="." horiz-adv-x="471" d="M61 143q0 47 42 85t102 38q61 0 102 -41t41 -102q0 -47 -41.5 -85t-101.5 -38q-62 0 -103 41t-41 102z" />
<glyph unicode="/" horiz-adv-x="1193" d="M66 -123q0 42 65 162l741 1401q39 74 66.5 108.5t56.5 34.5q36 0 56 -21.5t20 -60.5q0 -54 -35 -123q-710 -1310 -778 -1433q-66 -121 -137 -121q-25 0 -40 13t-15 40z" />
<glyph unicode="0" horiz-adv-x="1126" d="M61 676q0 213 63.5 380.5t180.5 262t268 94.5q142 0 254 -93.5t175 -261.5t63 -380q0 -302 -146.5 -490t-365.5 -188q-217 0 -354.5 185.5t-137.5 490.5zM287 717q0 -251 75.5 -402t210.5 -151q122 0 194.5 148.5t72.5 383.5q0 246 -72 389.5t-195 143.5 q-136 0 -211 -139t-75 -373z" />
<glyph unicode="1" horiz-adv-x="696" d="M61 1128q0 17 18.5 27.5t43.5 15.5t61 18t62 34q23 18 42.5 48.5t30 54.5t29 42t41.5 18q50 0 76.5 -51.5t26.5 -144.5v-983q0 -34 22.5 -50.5t49 -18.5t49 -14.5t22.5 -39.5q0 -31 -77 -56.5t-169 -25.5q-106 0 -186 25.5t-80 56.5q0 34 22.5 48t49 13.5t49 13.5 t22.5 48v858q-19 -8 -45 -8q-61 0 -110.5 20t-49.5 51z" />
<glyph unicode="2" horiz-adv-x="1085" d="M61 164q0 92 37.5 166t97 123.5t131.5 92.5t144 84t131.5 87.5t97 114t37.5 151.5q0 124 -59.5 195t-165.5 71t-176 -65.5t-70 -159.5q0 -52 33 -97.5t90 -45.5q14 0 23.5 -5.5t12.5 -10.5l3 -5q0 -29 -35.5 -45t-85.5 -16q-94 0 -170 67.5t-76 157.5q0 154 136 261.5 t335 107.5q198 0 335 -120t137 -290q0 -277 -308 -430q-62 -30 -91 -44.5t-78.5 -40t-72.5 -39.5t-59 -36.5t-52.5 -38t-38.5 -37.5t-31.5 -41.5t-17.5 -43t-9 -48.5h184q106 0 174.5 1.5t119 8t76 13.5t40 23t17.5 32t3 45q0 28 21.5 45t40.5 17q47 0 74.5 -47.5 t27.5 -137.5q0 -188 -184 -188l-623 4q-78 0 -117 43t-39 121z" />
<glyph unicode="3" horiz-adv-x="1146" d="M61 330q0 94 67.5 169.5t158.5 75.5q62 0 102.5 -28.5t40.5 -73.5q0 -2 -1 -5.5t-11.5 -9t-28.5 -5.5q-59 0 -91 -40t-32 -104q0 -92 69 -148.5t177 -56.5q152 0 250 94t98 234q0 137 -86.5 212t-241.5 75h-81q-17 0 -33 2.5t-33 9.5t-27 21t-10 34q0 22 3 32t21 21.5 t58 22.5q35 9 143 62q85 51 137.5 103t82.5 128q-129 6 -254 6q-79 0 -125 -6t-70.5 -23t-31.5 -39t-7 -61q0 -19 -16.5 -40t-44.5 -21q-36 0 -69.5 50t-33.5 134t52.5 144.5t152.5 60.5q41 0 102.5 -7t163.5 -7l254 14q35 0 58 -16.5t33.5 -47t14 -59.5t3.5 -68 q0 -51 -25 -102t-66.5 -93.5t-82 -74t-84.5 -57.5q176 -38 272 -135.5t96 -274.5q0 -131 -74 -239t-201 -170t-278 -62q-203 0 -337 101.5t-134 267.5z" />
<glyph unicode="4" d="M61 471q0 18 12 32.5t37.5 34t39.5 35.5q92 100 155.5 227.5t63.5 243.5q0 80 -29.5 142.5t-73.5 62.5q-16 0 -28 -10.5t-19.5 -20.5t-13.5 -10q-14 0 -18.5 14t-4.5 48q0 60 51 101.5t115 41.5q104 0 164.5 -93t60.5 -235q0 -50 -8.5 -97t-19 -83t-36 -81.5t-41.5 -71.5 t-55.5 -74.5t-58 -69.5t-67.5 -76h430v492q0 107 14 187.5t47 131t82 50.5q22 0 35.5 -9.5t18.5 -27.5t6.5 -31.5t1.5 -34.5v-758h184q29 0 45 -12t16 -28q0 -45 -53 -74t-131 -29h-41v-225q0 -27 19 -39t42.5 -12.5t42.5 -12.5t19 -39q0 -31 -67 -56t-158 -25 q-106 0 -186.5 25t-80.5 56q0 34 22.5 47.5t49.5 11.5t49.5 7.5t22.5 36.5v225h-492q-85 0 -124.5 23.5t-39.5 58.5z" />
<glyph unicode="5" horiz-adv-x="1126" d="M61 322q0 97 58 171t147 74q46 0 84.5 -25.5t38.5 -56.5q0 -41 -61 -41q-31 0 -56.5 -38t-25.5 -84q0 -92 69 -148.5t177 -56.5q150 0 238.5 92.5t88.5 234.5q0 138 -84.5 223t-222.5 85q-30 0 -112 -10.5t-113 -10.5q-46 0 -79.5 33t-33.5 115q0 52 15.5 159t15.5 164 q0 164 82 164l205 -14q102 0 163.5 7t102.5 7q100 0 152.5 -60.5t52.5 -144.5t-33.5 -134t-69.5 -50q-28 0 -44.5 21t-16.5 40q0 39 -7 61t-31.5 39t-70.5 23t-125 6q-85 0 -217 -6q0 -139 -24 -287q70 28 113 34.5t116 6.5q218 0 365 -126.5t147 -323.5q0 -141 -74 -254 t-200.5 -175.5t-278.5 -62.5q-199 0 -325 97.5t-126 251.5z" />
<glyph unicode="6" horiz-adv-x="1146" d="M61 655q0 353 158.5 555.5t435.5 202.5q168 0 278.5 -82t110.5 -205q0 -93 -43.5 -148.5t-119.5 -55.5q-43 0 -83 22t-40 39q0 19 16 25t35 7t35 23t16 68q0 62 -57 102.5t-148 40.5q-82 0 -146.5 -30t-104 -78t-66 -117t-37.5 -138t-14 -149v-20q83 83 167.5 123.5 t200.5 40.5q185 0 307.5 -122.5t122.5 -307.5q0 -211 -135.5 -331t-355.5 -120q-250 0 -391.5 168.5t-141.5 486.5zM328 430q0 -128 73.5 -217.5t192.5 -89.5q123 0 194.5 87.5t71.5 240.5q0 125 -72.5 205.5t-193.5 80.5q-122 0 -194 -84t-72 -223z" />
<glyph unicode="7" horiz-adv-x="1126" d="M41 1182q0 84 52.5 144t152.5 60q22 0 214 -11t351 -11q25 0 74.5 9t77.5 9q52 0 77 -23.5t25 -94.5q0 -29 -19.5 -61.5t-64.5 -86.5q-47 -56 -76.5 -91.5t-72.5 -92.5t-70 -101t-58 -104.5t-48.5 -114.5t-29.5 -119t-12 -131q0 -65 16 -124t32 -102.5t16 -72.5 q0 -28 -15.5 -47.5t-40.5 -28t-44 -11.5t-37 -3q-72 0 -116 27.5t-56 75.5q-21 86 -21 184q0 56 9.5 113t22.5 106t39.5 108t47.5 101.5t61 103t64.5 97.5t74 100.5t74 95t78.5 97.5h-276q-82 0 -130 -1.5t-90 -7t-61.5 -14t-34.5 -26t-18.5 -39t-3.5 -56.5 q0 -16 -16.5 -28.5t-45.5 -12.5q-36 0 -69 50t-33 135z" />
<glyph unicode="8" horiz-adv-x="1146" d="M61 387q0 137 86.5 227t241.5 121q-246 92 -246 307q0 156 127 262.5t324 106.5q184 0 307 -94.5t123 -233.5q0 -216 -246 -307q59 -19 101 -38t83.5 -48t66.5 -64t40.5 -85t15.5 -113q0 -196 -149 -313t-383 -117q-215 0 -353.5 110t-138.5 279zM287 387 q0 -124 74.5 -195t211.5 -71q77 0 146 30t115.5 92.5t46.5 143.5q0 64 -38.5 117t-98 84t-125.5 48t-127 17q-78 0 -141.5 -80.5t-63.5 -185.5zM348 1083q0 -92 91.5 -158.5t215.5 -66.5q61 0 112.5 64t51.5 141q0 106 -71.5 164.5t-169.5 58.5q-93 0 -161.5 -54t-68.5 -149 z" />
<glyph unicode="9" horiz-adv-x="1126" d="M61 266q0 91 53.5 148t131.5 57q46 0 84.5 -25.5t38.5 -56.5q-21 -20 -41 -20h-21q-13 -13 -20 -21.5t-14 -25t-7 -35.5q0 -77 59.5 -120.5t166.5 -43.5q109 0 188.5 73t119.5 197t40 283q-75 -90 -156.5 -127t-191.5 -37q-200 0 -315.5 115.5t-115.5 314.5 q0 201 128.5 326t342.5 125q248 0 390.5 -178t142.5 -498q0 -337 -158 -527t-436 -190q-186 0 -298 72t-112 194zM266 963q0 -139 72 -223.5t194 -84.5t194.5 84.5t72.5 223.5q0 125 -75 216t-192 91q-122 0 -194 -84t-72 -223z" />
<glyph unicode=":" horiz-adv-x="389" d="M41 342q0 47 41.5 85t101.5 38q62 0 103 -41t41 -102q0 -47 -42 -85t-102 -38q-62 0 -102.5 40.5t-40.5 102.5zM41 899q0 47 41.5 85t101.5 38q62 0 103 -41t41 -102q0 -47 -42 -85t-102 -38q-62 0 -102.5 41t-40.5 102z" />
<glyph unicode=";" horiz-adv-x="407" d="M41 899q0 47 41.5 85t101.5 38q62 0 103 -41t41 -102q0 -47 -42 -85t-102 -38q-62 0 -102.5 41t-40.5 102zM43 125q0 61 41.5 103t103.5 42q68 0 113 -50t45 -124q0 -45 -25.5 -102.5t-72 -101.5t-96.5 -44q-16 0 -34 14t-18 32q0 29 27.5 57t28.5 51q-45 0 -79 38 t-34 85z" />
<glyph unicode="?" horiz-adv-x="1064" d="M41 1085q0 141 117.5 234.5t312.5 93.5q199 0 335 -107.5t136 -261.5q0 -60 -25 -112t-64.5 -88.5t-87.5 -69t-96 -60t-87.5 -54.5t-64.5 -59.5t-25 -68.5q0 -71 34 -71q23 0 44 13t24 13q22 0 22 -32q0 -59 -46 -92t-111 -33q-77 0 -135 47.5t-58 134.5q0 56 44.5 113.5 t107.5 106t126 97.5t107.5 105t44.5 110q0 94 -69.5 160t-175.5 66q-93 0 -159.5 -54.5t-66.5 -130.5q0 -60 38 -101.5t85 -41.5q5 0 26.5 8t31.5 8q20 0 20 -26q0 -92 -160 -92q-94 0 -159.5 69.5t-65.5 175.5zM287 143q0 47 41.5 85t101.5 38q62 0 102.5 -41t40.5 -102 q0 -47 -41.5 -85t-101.5 -38q-62 0 -102.5 41t-40.5 102z" />
<glyph unicode="@" horiz-adv-x="1734" d="M123 369q0 166 62 311t168 247.5t254 161t315 58.5q98 0 196.5 -27.5t187 -82t157 -129t109 -175.5t40.5 -213q0 -90 -11 -162.5t-40 -141t-76.5 -115t-124.5 -74t-180 -27.5q-63 0 -109.5 41.5t-46.5 101.5q0 54 20.5 191.5t20.5 238.5q0 59 -39.5 91t-103.5 32 q-122 0 -204.5 -106.5t-82.5 -261.5q0 -93 44 -149t120 -56q38 0 73.5 17.5t53.5 17.5q11 0 19.5 -15t8.5 -30q0 -28 -23.5 -51t-59 -36t-70.5 -19.5t-64 -6.5q-126 0 -206 88.5t-80 239.5q0 131 60.5 244t164.5 180t225 67q80 0 164 -41q61 -41 123 -41q82 0 82 -102 q-2 -12 -27.5 -131.5t-40 -201t-14.5 -118.5q0 -46 18 -64t64 -18q71 0 120.5 58.5t70 141t20.5 177.5q0 235 -152 380t-407 145q-290 0 -473 -178.5t-183 -456.5t183 -456.5t473 -178.5q69 0 137.5 16t116 35t112 35t125.5 16q97 0 137.5 -15.5t40.5 -60.5 q0 -22 -16.5 -35.5t-51 -19t-63.5 -7t-78 -1.5q-47 0 -101 -16.5t-98 -37t-114.5 -37t-146.5 -16.5q-232 0 -414.5 100t-283.5 278t-101 401z" />
<glyph unicode="A" horiz-adv-x="1636" d="M57 41q0 34 16.5 46t43.5 13.5t56.5 6t61.5 33.5t52 85l346 979q4 12 4 17q0 19 -23.5 27t-51.5 9t-51.5 14t-23.5 40q0 57 86.5 80t241.5 22q391 0 391 -102q0 -29 -23.5 -42t-52 -14t-52 -12.5t-23.5 -38.5q0 -10 2 -16l291 -922q23 -73 55.5 -112.5t61 -47t54.5 -9 t41 -12.5t15 -44q0 -42 -95.5 -62t-234.5 -20q-153 0 -250.5 19.5t-97.5 62.5q0 31 24 43.5t58.5 13.5t68.5 2t58 14.5t24 45.5q0 6 -94 332h-467l-110 -332q-4 -12 -4 -19q0 -20 24.5 -27.5t59.5 -8.5t69.5 -3.5t59 -17t24.5 -43.5q0 -43 -97.5 -62.5t-250.5 -19.5 q-144 0 -215.5 19t-71.5 63zM631 655h348l-164 553z" />
<glyph unicode="B" horiz-adv-x="1413" d="M41 82q0 28 25.5 38t61.5 11.5t72 6t61.5 31t25.5 77.5v860q0 45 -25.5 67.5t-61.5 26.5t-72 6t-61.5 16t-25.5 48q0 43 97.5 62.5t250.5 19.5h471q184 0 286.5 -87t102.5 -241q0 -108 -52.5 -175.5t-172.5 -111.5q145 -25 236.5 -113t91.5 -235q0 -182 -139.5 -285.5 t-372.5 -103.5h-451q-153 0 -250.5 19.5t-97.5 62.5zM512 266q0 -76 23 -99.5t100 -23.5h123q169 0 248 64.5t79 202.5q0 102 -61 163q-52 52 -123 67t-205 15q-29 0 -42.5 1.5t-30 8.5t-23 24.5t-6.5 47.5q0 62 74 61q39 0 63.5 1t66.5 5t68.5 11.5t59.5 22.5t52 36.5 t32.5 54.5t13.5 75q0 204 -266 204h-82q-107 0 -135.5 -28.5t-28.5 -135.5v-778z" />
<glyph unicode="C" horiz-adv-x="1351" d="M41 676q0 213 88 381t247 262t361 94q207 0 329 -101.5t122 -246.5q0 -108 -56.5 -177t-148.5 -69q-50 0 -86.5 16.5t-36.5 45.5q0 6 6 12.5t15 7.5q102 17 102 143q0 94 -59.5 149.5t-165.5 55.5q-214 0 -342.5 -152.5t-128.5 -400.5q0 -246 125 -399.5t325 -153.5 q151 0 249.5 78.5t98.5 188.5q0 48 -18.5 73t-62.5 29q-29 3 -29 20q0 9 8 21q42 61 123 61q79 0 131.5 -60.5t52.5 -164.5q0 -170 -164.5 -289.5t-408.5 -119.5q-193 0 -347 88t-241.5 247t-87.5 361z" />
<glyph unicode="D" horiz-adv-x="1474" d="M41 84q0 28 23 38t56 11.5t66.5 6t56.5 31t23 77.5v860q0 45 -23 67.5t-56 26.5t-66.5 6t-56.5 16t-23 48q0 42 94.5 62t233.5 20h303q217 0 341 -36t216 -128q96 -96 140 -235.5t44 -297.5q0 -275 -139 -452q-94 -120 -209.5 -161.5t-347.5 -41.5h-348q-139 0 -233.5 20 t-94.5 62zM492 268q0 -25 0.5 -41t6 -30t9 -22t18.5 -14.5t24 -9t37 -4.5t47 -2h62q256 0 363.5 124t107.5 388q0 273 -118 413t-336 140q-105 0 -150 -10.5t-58 -33.5t-13 -79v-819z" />
<glyph unicode="E" horiz-adv-x="1310" d="M41 82q0 28 25 38t61 12t72 6t61 30.5t25 77.5v860q0 45 -23.5 67.5t-56.5 26.5t-66 6t-56.5 16t-23.5 48q0 42 94.5 62t233.5 20l328 -4q113 0 184.5 2t122.5 2q114 0 169.5 -59.5t55.5 -145.5q-27 -225 -123 -225q-28 0 -44.5 21t-16.5 40q0 66 -10.5 102t-48.5 61.5 t-104.5 33.5t-184.5 8q-56 0 -80.5 -0.5t-54 -4t-39 -8.5t-20 -17.5t-12 -28t-1.5 -42.5v-329h168q28 0 41.5 21t17 51t6.5 60.5t16.5 51.5t41.5 21q41 0 71.5 -89t29.5 -198q0 -99 -28.5 -182.5t-72.5 -83.5q-28 0 -40 21t-12.5 51l-1 60t-11.5 51t-38 21h-188v-368 q0 -26 5.5 -41t27 -30t69.5 -21.5t127 -6.5q112 0 176.5 8t104.5 31.5t53.5 60.5t13.5 101q0 19 17 40.5t45 21.5q46 0 74 -60t28 -166q0 -104 -61.5 -144t-204.5 -40h-594q-153 0 -250.5 19.5t-97.5 62.5z" />
<glyph unicode="F" horiz-adv-x="1290" d="M41 18q0 33 23 46t56 14t66.5 6t56.5 33.5t23 85.5v901q0 45 -23 67.5t-56 26.5t-66.5 6t-56.5 16t-23 48q0 42 94.5 62t233.5 20l327 -4q113 0 185 2t123 2q114 0 169.5 -59.5t55.5 -145.5q-27 -225 -123 -225q-28 0 -45 21t-17 40q0 66 -10.5 102t-48.5 61.5 t-104.5 33.5t-184.5 8h-62t-47 -1.5t-37 -4t-24.5 -8t-18 -12t-9 -18.5t-6 -25t-0.5 -34v-327h184q28 0 39.5 21t12 51t0.5 60.5t11.5 51.5t38.5 21q46 0 84.5 -90t38.5 -197q0 -99 -29 -182.5t-73 -83.5q-34 0 -50 21t-18 51t-3 60t-12.5 51t-39.5 21h-184v-409 q0 -57 25 -85.5t61 -33.5t72.5 -6t61.5 -14t25 -46q0 -42 -105.5 -61.5t-262.5 -19.5q-140 0 -234 19.5t-94 61.5z" />
<glyph unicode="G" horiz-adv-x="1576" d="M41 676q0 213 88 381t247 262t361 94q195 0 323 -103t128 -245q0 -104 -62.5 -175t-142.5 -71q-50 0 -86.5 16.5t-36.5 45.5q0 6 7.5 13t13.5 7q45 15 73.5 55.5t28.5 87.5q0 94 -59.5 149.5t-165.5 55.5q-214 0 -342.5 -152.5t-128.5 -400.5q0 -246 125 -399.5 t325 -153.5q138 0 243 80t105 187q0 48 -11.5 80t-29 45.5t-39.5 20t-44 9t-39.5 7.5t-29 20t-11.5 43q0 45 90.5 73.5t216.5 28.5q118 0 223 -35t105 -67q0 -28 -15 -43.5t-38 -19t-49.5 -11.5t-49.5 -20t-38 -45t-15 -86v-410q0 -318 -188 -507t-488 -189 q-244 0 -409 119.5t-165 289.5q0 93 54.5 159.5t130.5 66.5q45 0 84 -21.5t39 -60.5q-1 -17 -21 -21q-82 -16 -82 -123q0 -95 96.5 -170t231.5 -75q153 0 261 79t159 211t51 303q-202 -81 -348 -81q-305 0 -490.5 193t-185.5 503z" />
<glyph unicode="H" horiz-adv-x="1576" d="M61 61q0 33 23.5 46t56.5 14.5t66 6t56.5 33t23.5 85.5v901q0 57 -23.5 83.5t-56.5 29.5t-66 3t-56.5 14.5t-23.5 53.5q0 43 98 62t251 20q327 0 327 -82q0 -33 -23 -46t-56.5 -14t-66.5 -5.5t-56 -33t-23 -85.5v-287h553v287q0 57 -21 85.5t-51.5 33t-60.5 5.5t-51 14 t-21 46q0 43 85.5 62t221.5 20q153 0 251 -19.5t98 -62.5q0 -39 -23.5 -53.5t-56.5 -14.5t-66 -3t-56.5 -29.5t-23.5 -83.5v-901q0 -57 23.5 -85.5t56.5 -33.5t66 -5.5t56.5 -14t23.5 -46.5q0 -42 -94 -61.5t-234 -19.5q-328 0 -328 81q0 33 21 46t51 14.5t60.5 6t51.5 33 t21 85.5v450h-553v-450q0 -57 23 -85.5t56 -33.5t66.5 -5.5t56.5 -14t23 -46.5q0 -42 -94 -61.5t-233 -19.5q-349 0 -349 81z" />
<glyph unicode="I" horiz-adv-x="798" d="M61 61q0 33 23.5 46t56.5 14.5t66 6t56.5 33t23.5 85.5v901q0 57 -23.5 83.5t-56.5 29.5t-66 3t-56.5 14.5t-23.5 53.5q0 43 98 62t251 20q327 0 327 -82q0 -33 -23 -46t-56.5 -14t-66.5 -5.5t-56 -33t-23 -85.5v-901q0 -57 23 -85.5t56 -33.5t66.5 -5.5t56.5 -14 t23 -46.5q0 -81 -348 -81q-140 0 -234 19.5t-94 61.5z" />
<glyph unicode="J" horiz-adv-x="1241" d="M53 346q0 94 67.5 170t158.5 76q54 0 88 -24t34 -56q-8 -17 -41 -23q-47 -9 -74.5 -46t-27.5 -97q0 -91 64.5 -153t150.5 -62q134 0 195 85.5t61 272.5v656q0 57 -23 83.5t-56.5 29.5t-66.5 3t-56 14.5t-23 53.5q0 43 97.5 62.5t250.5 19.5q139 0 233.5 -20t94.5 -62 q0 -33 -23.5 -46t-56.5 -14t-66 -5.5t-56.5 -33t-23.5 -85.5v-682q0 -488 -450 -488q-205 0 -328 106.5t-123 264.5z" />
<glyph unicode="K" horiz-adv-x="1617" d="M61 59q0 33 23.5 46t56.5 14t66 6t56.5 33.5t23.5 85.5v901q0 57 -23.5 83.5t-56.5 29.5t-66 3t-56.5 14.5t-23.5 53.5q0 43 98 62.5t251 19.5q139 0 233 -20t94 -62q0 -33 -23 -46t-56.5 -14t-66.5 -5.5t-56 -33t-23 -85.5v-901q0 -57 23 -85.5t56 -33.5t66.5 -6 t56.5 -14t23 -46q0 -43 -97.5 -62.5t-250.5 -19.5q-139 0 -233.5 20t-94.5 62zM590 778q0 46 45 80l307 266q1 1 18.5 17.5t29 28t23 28t11.5 27.5q0 22 -41 22q-51 0 -66.5 11.5t-15.5 50.5q0 43 85.5 62t221.5 20q144 0 215.5 -19t71.5 -63q0 -30 -27.5 -46t-74.5 -16 q-82 0 -205 -123l-348 -307l184 -266q86 -123 166 -217t135 -142t101.5 -81t73.5 -45t41.5 -23t14.5 -25q0 -21 -39.5 -45t-103.5 -24q-86 0 -170.5 38t-149 92t-136.5 140t-117.5 153t-109.5 163t-95 139q-45 59 -45 104z" />
<glyph unicode="L" horiz-adv-x="1331" d="M61 84q0 34 23.5 46t56.5 12t66 3t56.5 27.5t23.5 75.5v880q0 48 -16.5 75t-42 32.5t-54.5 8t-54.5 3.5t-42 17t-16.5 49q0 43 98 62t251 20q139 0 233 -20t94 -62q0 -33 -23 -46t-56.5 -14t-66.5 -6t-56 -33.5t-23 -85.5v-819q0 -102 45 -133t160 -31q70 0 116 1t88 6 t65.5 10t44.5 19t29.5 28t15.5 40.5t8 52.5t1 69q0 29 24.5 45t57.5 16q46 0 74.5 -69t28.5 -177q0 -102 -67 -143t-199 -41h-615q-139 0 -233.5 20t-94.5 62z" />
<glyph unicode="M" horiz-adv-x="1904" d="M61 82q0 28 18 40.5t45.5 11.5t59.5 1.5t59.5 10t45.5 37.5t18 83v860q0 51 -25.5 77.5t-61.5 32.5t-72 9t-61.5 17.5t-25.5 48.5q0 43 98 62t251 20q106 0 158.5 -36t86.5 -128l287 -778l307 778q31 93 88 128.5t179 35.5q139 0 233 -20t94 -62q0 -34 -23 -48.5 t-56.5 -17.5t-66.5 -9t-56 -32.5t-23 -77.5v-860q0 -53 16.5 -83t41.5 -37.5t54.5 -10t54.5 -1.5t41.5 -11.5t16.5 -40.5q0 -82 -348 -82q-139 0 -233.5 20t-94.5 62q0 25 16.5 37t42 12t54.5 3t54.5 9.5t42 32t16.5 70.5v901l-410 -1106q-18 -53 -59 -53q-16 0 -30.5 14.5 t-21.5 40.5l-401 1104v-881q0 -46 12.5 -74.5t32.5 -39.5t44 -14.5t47.5 -3.5t43.5 -2t32.5 -14t12.5 -36q0 -82 -307 -82q-328 0 -328 82z" />
<glyph unicode="N" horiz-adv-x="1576" d="M61 82q0 28 16.5 40.5t42 11.5t54.5 1.5t54.5 10t42 37.5t16.5 83v860q0 51 -23.5 77.5t-56.5 32.5t-66 9t-56.5 17.5t-23.5 48.5q0 82 308 82q49 0 88 -11t77.5 -39.5t63.5 -53t72 -75.5l436 -477v410q0 57 -23 83.5t-56 29.5t-66.5 3t-56.5 14.5t-23 53.5q0 82 327 82 q308 0 308 -82q0 -33 -23.5 -46t-56.5 -14t-66 -5.5t-56.5 -33t-23.5 -85.5v-901q0 -57 23.5 -85.5t56.5 -33.5t66 -6t56.5 -14t23.5 -46q0 -81 -328 -81q-307 0 -307 81q0 33 23 46t56.5 14t66.5 6t56 33.5t23 85.5v102q0 47 -19.5 82t-62.5 82l-553 614v-880 q0 -53 23 -80.5t56.5 -33t66.5 -7t56 -10t23 -33.5q0 -82 -327 -82q-136 0 -222 19.5t-86 62.5z" />
<glyph unicode="O" horiz-adv-x="1495" d="M61 717q0 152 51.5 281.5t143 220.5t221 142.5t281.5 51.5q193 0 347 -88t241.5 -247t87.5 -361q0 -203 -88 -366.5t-247.5 -257t-361.5 -93.5q-307 0 -491.5 197t-184.5 520zM307 696q0 -248 118.5 -390t332.5 -142q199 0 314.5 143t115.5 389q0 268 -119 410.5 t-311 142.5q-203 0 -327 -148t-124 -405z" />
<glyph unicode="P" horiz-adv-x="1331" d="M61 82q0 28 18 42t45.5 15t59.5 5.5t59.5 13.5t45.5 40.5t18 84.5v843q0 45 -25.5 67.5t-61.5 26.5t-72 6t-61.5 16t-25.5 48q0 43 98 62.5t251 19.5h327q175 0 265.5 -24.5t164.5 -98.5q46 -46 74.5 -118t28.5 -148q0 -110 -48 -192t-129 -128t-175.5 -68t-200.5 -22 q-60 0 -91.5 28t-31.5 75q0 29 24.5 45t57.5 16q81 0 146 14.5t116 45t78.5 83t27.5 124.5q0 106 -83.5 165.5t-223.5 59.5q-41 0 -68 -0.5t-50.5 -5t-37 -8t-24.5 -15.5t-15.5 -20t-7.5 -29.5t-3.5 -37t-0.5 -48.5v-803q0 -54 25.5 -82.5t61.5 -34.5t72 -8t61.5 -13.5 t25.5 -41.5q0 -42 -105 -62t-261 -20q-142 0 -245.5 20t-103.5 62z" />
<glyph unicode="Q" horiz-adv-x="1597" d="M61 696q0 323 184.5 520t491.5 197q203 0 361.5 -89t247 -252.5t88.5 -375.5q0 -181 -88 -348t-240 -266q30 -45 63 -63.5t80 -18.5q36 0 69.5 16.5t33.5 44.5q0 19 -9.5 33t-21.5 21t-21.5 14.5t-9.5 13.5q0 21 41 21q91 0 148 -53t57 -131q0 -94 -70 -160t-176 -66 q-112 0 -210.5 69t-157.5 179q-67 -22 -185 -22q-192 0 -346.5 93t-242 257t-87.5 366zM307 717q0 -102 14.5 -174t47.5 -154q15 105 82.5 165t162.5 60q75 0 133.5 -24.5t104.5 -76t80 -113t72 -154.5q91 61 137.5 177.5t46.5 272.5q0 257 -124 405t-327 148 q-196 0 -313 -149t-117 -383zM512 307q0 -74 65 -119t160 -45q80 0 123 21q-61 136 -112 191t-113 55q-48 0 -85.5 -29.5t-37.5 -73.5z" />
<glyph unicode="R" horiz-adv-x="1536" d="M61 82q0 25 13.5 37.5t35.5 15.5t48 3t52 4.5t48 16t35.5 40.5t13.5 75v852q0 45 -25.5 67.5t-61.5 26.5t-72 6t-61.5 16t-25.5 48q0 43 98 62.5t251 19.5h372q84 0 157.5 -13t138.5 -43t111.5 -74.5t73.5 -110.5t27 -148q0 -138 -112 -248t-260 -137q96 -134 182.5 -236 t144 -154.5t104.5 -89t73 -49.5t39.5 -24t13.5 -25q0 -22 -36.5 -45.5t-95.5 -23.5q-54 0 -117.5 28.5t-119.5 70t-121.5 106.5t-112.5 119t-105 129t-86 114.5t-67 95.5q-16 21 -16 48q0 32 28.5 52.5t69.5 20.5q152 0 250 68t98 201q0 109 -77.5 167t-229.5 58 q-32 0 -55 -0.5t-43.5 -3t-34 -4.5t-25.5 -8.5t-18.5 -10.5t-12 -16t-8 -19.5t-4 -25.5t-1.5 -30.5v-37.5v-819q0 -52 25 -79t61.5 -32t72.5 -6.5t61 -13t25 -41.5q0 -42 -107 -62t-263 -20q-142 0 -245.5 20t-103.5 62z" />
<glyph unicode="S" d="M61 395q0 92 54 156.5t131 64.5q56 0 90.5 -23.5t34.5 -49.5q0 -10 -16.5 -20.5t-36 -21t-36 -38t-16.5 -68.5q0 -69 54 -126t138.5 -88t176.5 -31q141 0 227 59t86 164q0 46 -27 82t-73.5 60.5t-106 45t-125.5 40.5t-132 42.5t-125.5 55.5t-106 75t-73.5 105.5 t-27 142.5q0 181 131.5 279t351.5 98q188 0 309 -72.5t121 -193.5q0 -104 -54.5 -154.5t-150.5 -50.5q-50 0 -86.5 16t-36.5 45q1 19 21 21q102 10 102 102q0 61 -58 92t-167 31q-108 0 -187 -54t-79 -130q0 -59 44 -101.5t114 -69.5t154.5 -52t169 -58t154.5 -77t114 -119 t44 -175q0 -195 -146 -304t-382 -109q-244 0 -409 119.5t-165 289.5z" />
<glyph unicode="T" horiz-adv-x="1331" d="M61 1167q0 86 56 145.5t170 59.5h757q114 0 170 -59.5t56 -145.5q0 -93 -31 -151t-74 -58q-31 0 -55.5 19t-24.5 47q0 30 -2 51t-8 45t-19 40t-34 30t-53.5 20.5t-75.5 6.5q-51 0 -115 -9v-962q0 -56 23.5 -84.5t56.5 -32.5q29 -4 59 -4l7 1q33 0 56.5 -8.5t23.5 -35.5 q0 -43 -98 -62.5t-251 -19.5q-327 0 -327 82q0 28 23 36t56 8q4 0 8 -1q29 -1 59 3q34 4 56.5 32.5t22.5 85.5v962q-65 9 -115 9q-43 0 -75.5 -6.5t-53.5 -20.5t-34 -30t-19 -40t-8 -45t-2 -51q0 -28 -24.5 -47t-55.5 -19q-43 0 -74 58t-31 151z" />
<glyph unicode="U" horiz-adv-x="1617" d="M61 1309q0 42 103.5 62t245.5 20q153 0 250.5 -19.5t97.5 -62.5q0 -33 -25.5 -46t-61.5 -14t-72 -6t-61.5 -33.5t-25.5 -85.5v-675q0 -84 22 -142t65.5 -88.5t96 -43.5t123.5 -13q168 0 248 76t80 231v655q0 48 -18 76t-45.5 35.5t-59.5 11.5t-59.5 5t-45.5 15t-18 42 q0 82 328 82q327 0 327 -82q0 -33 -23 -46t-56 -14t-66.5 -6t-56.5 -33.5t-23 -85.5v-665q0 -234 -142.5 -358t-389.5 -124q-121 0 -234 40.5t-176 103.5q-62 62 -82 126t-20 202v675q0 57 -23.5 85.5t-56.5 33.5t-66 6t-56.5 14t-23.5 46z" />
<glyph unicode="V" horiz-adv-x="1597" d="M61 1290q0 42 103.5 62t245.5 20q153 0 250.5 -19t97.5 -63q0 -30 -24 -43.5t-58.5 -15t-69 -3.5t-58.5 -18.5t-24 -52.5q0 -24 8 -51l267 -942l327 942q9 30 9 51q0 36 -24 52.5t-58.5 18.5t-69 3.5t-58.5 15t-24 43.5q0 42 94.5 62t233.5 20q307 0 307 -82 q0 -39 -15 -53.5t-39.5 -15t-51.5 -3t-54.5 -29.5t-44.5 -83l-348 -963q-26 -70 -72.5 -106.5t-132.5 -36.5q-77 0 -119 32.5t-67 110.5l-311 965q-14 43 -37 69t-46.5 33.5t-48.5 12t-44 7t-31.5 17t-12.5 43.5z" />
<glyph unicode="W" horiz-adv-x="2211" d="M41 1292q0 43 97.5 62.5t250.5 19.5q266 0 266 -82q0 -29 -16 -42.5t-38.5 -15t-45.5 -3.5t-39 -16t-16 -44q0 -5 202 -954q271 898 271 950q0 32 -18 46.5t-43.5 16.5t-51 3.5t-43.5 15t-18 43.5q0 21 26 37t62 24.5t83 13t78.5 6t57.5 1.5q158 0 232.5 -18.5 t74.5 -63.5q0 -29 -16.5 -42.5t-39.5 -15.5t-46 -4.5t-39.5 -16.5t-16.5 -44l207 -946q269 891 269 944q0 32 -18 46.5t-43.5 16.5t-51.5 3.5t-44 15t-18 43.5q0 44 71.5 63t215.5 19q136 0 221.5 -19.5t85.5 -62.5q0 -39 -16.5 -53.5t-44 -15t-56.5 -3.5t-59.5 -29.5 t-48.5 -82.5l-307 -963q-16 -65 -63 -104t-121 -39q-165 0 -187 143l-162 717l-231 -731q-18 -37 -28 -53t-30.5 -37.5t-49.5 -30t-70 -8.5q-78 0 -123.5 34t-60.5 109l-246 963q-11 56 -36 83t-53 30t-54.5 3t-44 14.5t-17.5 53.5z" />
<glyph unicode="X" horiz-adv-x="1642" d="M61 68q0 24 19 34.5t51 15t68.5 11.5t77.5 32.5t71 69.5l352 512l-280 408q-30 50 -76.5 74t-83.5 25t-64.5 10.5t-27.5 35.5q0 33 24 54t72.5 31.5t101.5 14t130 2.5q307 0 307 -81q0 -32 -23 -45.5t-51 -13t-51 -6.5t-23 -27t13.5 -44t87.5 -138q52 -81 88 -136 l170 246q24 33 24 57t-21 34.5t-45.5 11.5t-45.5 15t-21 46q0 82 307 81q147 0 217 -22t70 -80q0 -27 -16.5 -36.5t-46.5 -11t-65 -6t-78.5 -31.5t-80.5 -78l-266 -369l367 -533q69 -102 186 -102q33 0 57.5 -16t24.5 -45q0 -42 -103 -62t-245 -20q-153 0 -250.5 19.5 t-97.5 62.5q-1 28 29 39q27 10 59 10h6h7q32 -1 58 7q30 8 29 32q0 33 -41 92l-223 332l-252 -349q-25 -46 -25 -71q0 -26 26 -35.5t58 -8t58 -9.5t26 -39q0 -43 -97.5 -62.5t-250.5 -19.5q-291 0 -291 82z" />
<glyph unicode="Y" horiz-adv-x="1554" d="M61 1292q0 32 30 53.5t87 32t115 14t137 3.5q136 0 221.5 -19.5t85.5 -62.5q0 -34 -28 -47.5t-61 -13t-61 -8.5t-28 -34q0 -27 35 -82l209 -335l219 335q33 56 33 82t-27.5 35t-60.5 8t-60.5 12.5t-27.5 47.5q0 82 327 82q136 0 211.5 -23t75.5 -80q0 -47 -82 -47 q-26 0 -43.5 -2.5t-42.5 -13t-50.5 -36t-51.5 -65.5l-324 -499v-402q0 -51 23 -77.5t56.5 -31t66.5 -6t56 -11.5t23 -38q0 -81 -346 -81q-348 0 -348 81q0 25 18 36.5t45.5 11t59.5 2t59.5 8.5t45.5 33t18 73v389l-340 519q-33 50 -74.5 77t-75 32t-63 6.5t-46 9.5t-16.5 32 z" />
<glyph unicode="Z" horiz-adv-x="1140" d="M61 94q0 18 6 32.5t15.5 30t13.5 27.5q34 45 342.5 509t333.5 499q-14 0 -43 1t-43 1h-96q-169 0 -244 -49q-22 -15 -32 -44t-12 -58.5t-7 -57.5t-23 -45.5t-53 -17.5q-102 0 -102 225q0 201 211 201h301q204 4 327 4q50 0 85.5 -20.5t35.5 -63.5q0 -42 -24 -70 q-1 -1 -117.5 -172.5t-230.5 -340t-221.5 -331t-121.5 -190.5q14 -14 41.5 -17.5t81.5 -3.5q88 0 153 4.5t111.5 11t77 20.5t48.5 28t26.5 38.5t11 45.5t2.5 57q0 28 21.5 45t40.5 17q51 0 87 -52.5t36 -152.5q0 -85 -55.5 -144t-170.5 -59h-389q-164 -2 -307 -2 q-53 0 -85 25.5t-32 68.5z" />
<glyph unicode="`" horiz-adv-x="696" d="M98 1573q0 44 25 73t57 29q41 0 58 -15t41 -58q47 -87 99 -157.5t91.5 -109t72.5 -67.5t50.5 -48.5t17.5 -35.5q0 -15 -13 -28t-28 -13q-45 0 -125 44.5t-156.5 108.5t-133 141.5t-56.5 135.5z" />
<glyph unicode="a" horiz-adv-x="1085" d="M61 285q0 121 76 194.5t232 112.5l82 20q158 32 207 58t49 86q0 72 -55.5 107.5t-139.5 35.5q-78 0 -131 -28.5t-53 -73.5q0 -22 9.5 -36.5t21 -19t21 -11t9.5 -15.5q0 -30 -27.5 -46t-74.5 -16q-77 0 -120.5 43.5t-43.5 120.5q0 108 113 177t296 69q390 0 390 -328v-471 q0 -46 10.5 -78t25.5 -46.5t30 -23.5t25.5 -17t10.5 -19q0 -32 -29 -57t-73 -25q-86 0 -127 37t-58 106q-68 -76 -144.5 -109.5t-182.5 -33.5q-164 0 -256.5 80t-92.5 207zM287 305q0 -63 44.5 -103t119.5 -40q126 0 195 81t69 246v41q-49 -34 -194 -67q-16 -4 -25 -6 q-13 -4 -43.5 -11.5t-48.5 -12.5t-43 -16.5t-39 -25t-24.5 -35.5t-10.5 -51z" />
<glyph unicode="b" d="M61 1331q0 30 28 46t75 16q205 0 205 -246v-225q80 80 155.5 111.5t171.5 31.5q212 0 341.5 -150t129.5 -383q0 -231 -138 -381.5t-353 -150.5q-55 0 -129.5 28.5t-110.5 28.5t-67 -16q-16 -16 -45 -28.5t-58 -12.5q-36 0 -69 33.5t-33 89.5v1003q0 56 -16 95t-35.5 54 t-35.5 29.5t-16 26.5zM369 512q0 -157 75.5 -252.5t210.5 -95.5q122 0 204.5 106.5t82.5 261.5q0 87 -30.5 164.5t-97.5 131t-159 53.5q-125 0 -205.5 -101.5t-80.5 -267.5z" />
<glyph unicode="c" horiz-adv-x="1044" d="M61 510q0 232 135 382t349 150q92 0 182 -30t149.5 -83t59.5 -112q0 -149 -156 -149q-16 0 -27.5 7t-11.5 19q0 4 7.5 22t7.5 44q0 56 -65.5 97.5t-145.5 41.5q-120 0 -189 -108t-69 -281q0 -172 72 -270.5t208 -98.5q91 0 146 40.5t55 103.5q0 20 -19.5 37t-19.5 28 q0 24 34.5 41t67.5 17q61 0 98.5 -41t37.5 -103q0 -107 -125.5 -186.5t-294.5 -79.5q-227 0 -356.5 139.5t-129.5 372.5z" />
<glyph unicode="d" d="M61 532q0 231 128.5 371.5t342.5 140.5q46 0 94.5 -12t86 -29t68 -34.5t46 -30.5t13.5 -16v204q0 56 -16 95t-35.5 54t-35.5 29.5t-16 26.5q0 62 123 62q51 0 88.5 -20.5t57.5 -57t29 -78t9 -90.5v-881q0 -46 12.5 -78t31 -46.5t36.5 -23.5t30.5 -17t12.5 -19 q0 -33 -32.5 -57.5t-90.5 -24.5q-72 0 -119.5 48t-64.5 116q-132 -164 -328 -164q-213 0 -342 149.5t-129 382.5zM287 512q0 -155 72 -251.5t194 -96.5q75 0 131.5 26.5t89.5 73t49 103.5t17 125v40q0 155 -72.5 252t-194.5 97q-136 0 -211 -99t-75 -270z" />
<glyph unicode="e" horiz-adv-x="1085" d="M61 485q0 245 138 399t354 154q185 0 302.5 -90t148.5 -258q4 -36 4 -49q0 -73 -42 -104t-126 -31h-553v-41q0 -152 84 -240t223 -88q107 0 176.5 41t69.5 103q0 26 -20.5 47.5t-20.5 33.5q0 18 25 29.5t57 11.5q60 0 101.5 -37.5t41.5 -84.5q0 -80 -61 -146.5 t-164.5 -103.5t-225.5 -37q-229 0 -370.5 137t-141.5 354zM307 649h492q0 110 -60.5 178t-165.5 68q-195 0 -266 -246z" />
<glyph unicode="f" horiz-adv-x="831" d="M61 899q0 46 28.5 74t74.5 28h20q17 0 23.5 1.5t12 10.5t5.5 29v62q0 151 98 229t271 78q123 0 194.5 -44t71.5 -120q0 -52 -41 -97.5t-82 -45.5q-24 0 -32.5 9.5t-8.5 31.5q0 4 2 17t2 24q0 30 -29 45.5t-77 15.5q-40 0 -67 -9.5t-42 -24.5t-22.5 -42.5t-9.5 -52.5 t-2 -67v-50h143q33 0 57.5 -16t24.5 -45q0 -44 -37.5 -73t-85.5 -29h-102v-697q0 -27 19 -39t42 -12t42 -12t19 -39q0 -31 -67.5 -56.5t-157.5 -25.5q-104 0 -175 25t-71 57q0 27 19 39t42.5 12t42.5 12t19 39v697h-102q-62 0 -62 61z" />
<glyph unicode="g" horiz-adv-x="1167" d="M61 -193q0 75 53 119.5t132 44.5q53 0 88 -14.5t35 -40.5q0 -10 -16 -18.5t-35.5 -15t-35.5 -20.5t-16 -34q0 -47 84 -85t203 -38q348 0 348 184q0 63 -42 89.5t-163 33.5q-87 10 -171 18t-127.5 12t-67.5 9q-78 16 -132.5 71t-54.5 136q0 77 34 125.5t110 79.5 q-59 59 -81 124.5t-22 162.5q0 153 110 250.5t279 97.5q49 0 77 -3.5t87 -17.5q-22 49 -22 97q0 85 57.5 147.5t149.5 62.5q76 0 130 -54t54 -130q0 -62 -41 -102.5t-102 -40.5q-6 0 -13.5 7t-7.5 13q0 18 20.5 39.5t20.5 42.5q0 28 -21 45t-40 17q-32 0 -57 -29.5 t-25 -73.5q0 -38 16 -75.5t39 -69.5t46.5 -66.5t39.5 -80.5t16 -97q0 -154 -117 -261.5t-286 -107.5q-50 0 -73.5 1.5t-58 10.5t-73.5 29q-61 -30 -61 -61q0 -47 35 -70t129 -32l245 -21q184 -15 276.5 -85t92.5 -202q0 -168 -156 -268t-418 -100q-213 0 -342 68.5 t-129 176.5zM397 729q0 -92 54.5 -158.5t130.5 -66.5q90 0 147 65t57 160q0 93 -54 159t-130 66q-90 0 -147.5 -65.5t-57.5 -159.5z" />
<glyph unicode="h" d="M61 84q0 27 19 39t42.5 12.5t42.5 12t19 38.5v963q0 56 -16 95t-35 54t-35 29.5t-16 26.5q0 30 27.5 45.5t74.5 15.5q205 0 205 -246v-225q81 65 150 94t157 29q171 0 270 -91t99 -257v-471q0 -46 10.5 -78t25.5 -47t30 -24t25.5 -17t10.5 -19q0 -32 -29 -56.5t-73 -24.5 q-47 0 -84 16t-59.5 42t-36.5 61.5t-19.5 71t-5.5 75.5v389q0 138 -49 202t-156 64q-124 0 -195 -90.5t-71 -257.5v-369q0 -27 22.5 -39t49 -11.5t49 -12t22.5 -39.5q0 -31 -76.5 -56.5t-168.5 -25.5q-91 0 -158.5 25.5t-67.5 56.5z" />
<glyph unicode="i" horiz-adv-x="593" d="M61 82q0 22 15 31.5t36 10.5t42 3t36 15.5t15 41.5v635q0 46 -10.5 77t-25.5 44.5t-30.5 22t-26 18t-10.5 23.5q0 32 29.5 56.5t73.5 24.5q47 0 84 -16t59.5 -42t36.5 -61.5t19.5 -71t5.5 -75.5v-635q0 -34 19 -50t42 -16.5t42 -8t19 -27.5q0 -31 -67 -56.5t-158 -25.5 q-92 0 -169 25.5t-77 56.5zM143 1311q0 61 41 102t103 41q61 0 102 -41t41 -102q0 -50 -42.5 -97t-100.5 -47t-101 47.5t-43 96.5z" />
<glyph unicode="j" horiz-adv-x="669" d="M-145 -205q0 62 41 103t102 41q46 0 84.5 -18t38.5 -44q0 -15 -9.5 -22.5t-21.5 -10.5t-21.5 -15t-9.5 -34q0 -18 44 -39.5t100 -21.5q106 0 145 50t39 175v881q0 46 -10.5 77t-25.5 45.5t-30 23.5t-25.5 17.5t-10.5 20.5q0 33 32.5 57.5t90.5 24.5q51 0 88.5 -23.5 t57.5 -64t29 -84.5t9 -94v-840q0 -135 -17.5 -197.5t-64.5 -109.5q-91 -91 -307 -103q-166 0 -257 55.5t-91 149.5zM322 1311q0 61 41 102t102 41t102 -41t41 -102q0 -50 -42.5 -97t-100.5 -47t-100.5 47t-42.5 97z" />
<glyph unicode="k" horiz-adv-x="1474" d="M61 84q0 22 12.5 31.5t31 10.5t36.5 3t30.5 15.5t12.5 41.5v963q0 56 -16 95t-35 54t-35 29.5t-16 26.5q0 30 27.5 45.5t74.5 15.5q205 0 205 -246v-983q0 -34 22.5 -50t49 -16t49 -8t22.5 -28q0 -31 -76.5 -56.5t-168.5 -25.5q-91 0 -158.5 25.5t-67.5 56.5zM463 629 q0 41 49 90l195 164q63 47 63 92q0 17 -37 27.5t-37 23.5q0 33 62 57.5t164 24.5q116 0 180.5 -24t64.5 -58q0 -21 -14 -29t-37 -9.5t-66 -22.5t-87 -62l-287 -235l162 -217q118 -152 222.5 -259.5t165.5 -150.5t106.5 -68.5t63 -38t17.5 -34.5q0 -6 -11.5 -17t-40 -22 t-63.5 -11q-140 0 -315 152q-57 42 -103.5 90t-121.5 135l-266 328q-29 43 -29 74z" />
<glyph unicode="l" horiz-adv-x="593" d="M61 82q0 22 15 31.5t36 10.5t42 3t36 15.5t15 41.5v963q0 46 -10.5 79.5t-25.5 51t-30.5 29.5t-26 22.5t-10.5 22.5q0 30 28 45.5t75 15.5q205 0 205 -246v-983q0 -34 19 -50t42 -16.5t42 -8t19 -27.5q0 -31 -67 -56.5t-158 -25.5q-92 0 -169 25.5t-77 56.5z" />
<glyph unicode="m" horiz-adv-x="1884" d="M61 80q0 22 12.5 31.5t31 10.5t36.5 3t30.5 15.5t12.5 41.5v635q0 46 -10.5 78t-25.5 46.5t-30 23.5t-25.5 17t-10.5 19q0 33 32.5 57.5t90.5 24.5q72 0 119.5 -47.5t64.5 -115.5q47 63 131.5 103t175.5 40q113 0 191 -40.5t137 -143.5q59 103 137 143.5t191 40.5 q132 0 227 -59q73 -46 97 -116.5t24 -213.5v-410q0 -46 12.5 -78t31 -46.5t36.5 -23.5t30.5 -17t12.5 -19q0 -31 -38.5 -56.5t-84.5 -25.5q-47 0 -84 16t-59.5 42t-36.5 61.5t-19.5 71t-5.5 75.5v389q0 124 -49.5 185t-155.5 61q-67 0 -116.5 -27t-77 -74.5t-40 -103.5 t-12.5 -123v-389q0 -34 22.5 -50t49.5 -16t49.5 -8t22.5 -28q0 -32 -71 -57t-175 -25q-90 0 -157.5 25.5t-67.5 56.5q0 22 12.5 31.5t30.5 10.5t36.5 3t31 15.5t12.5 41.5v471q0 124 -49.5 185t-155.5 61q-107 0 -176.5 -88t-69.5 -219v-410q0 -34 22.5 -50t49 -16t49 -8 t22.5 -28q0 -31 -67 -56.5t-158 -25.5q-104 0 -175 25t-71 57z" />
<glyph unicode="n" d="M61 80q0 27 19 39t42.5 12.5t42.5 12t19 38.5v656q0 49 -16 82t-35 45.5t-35 27t-16 29.5q0 32 29 57t73 25q87 0 138 -50.5t67 -133.5q59 88 134 125.5t173 37.5q135 0 226 -61q76 -61 99 -124.5t23 -203.5v-409q0 -46 12.5 -78t31 -48t36.5 -27t30.5 -23.5t12.5 -28.5 q0 -17 -40 -39.5t-83 -22.5q-204 0 -204 246v410q0 124 -49.5 185t-155.5 61q-108 0 -177 -78t-69 -189v-471q0 -27 22.5 -39t49 -11.5t49 -12t22.5 -39.5q0 -32 -70.5 -57t-174.5 -25q-91 0 -158.5 25.5t-67.5 56.5z" />
<glyph unicode="o" horiz-adv-x="1146" d="M61 520q0 232 142 382.5t370 150.5q232 0 372 -144.5t140 -388.5t-140 -388t-372 -144t-372 144t-140 388zM287 520q0 -171 75 -269.5t211 -98.5q125 0 206 101t81 267q0 171 -75.5 270t-211.5 99q-125 0 -205.5 -101.5t-80.5 -267.5z" />
<glyph unicode="p" horiz-adv-x="1249" d="M61 -346q0 28 15 41.5t36 15.5t42 3t36 10.5t15 31.5v1024q0 46 -12.5 77t-30.5 45t-36.5 23t-31 18t-12.5 22q0 31 38.5 56.5t84.5 25.5q71 0 119 -48t65 -116q60 75 157 119.5t191 44.5q197 0 324 -147t127 -365q0 -243 -134.5 -398t-336.5 -155q-89 0 -158 28.5 t-149 93.5v-348q0 -27 19 -39t42 -12t42 -12t19 -39q0 -24 -67 -43t-158 -19q-94 0 -170 19t-76 43zM410 494q0 -155 74.5 -241.5t211.5 -86.5q122 0 194.5 96.5t72.5 251.5q0 167 -71 257.5t-196 90.5q-136 0 -211 -98.5t-75 -269.5z" />
<glyph unicode="q" horiz-adv-x="1249" d="M61 514q0 231 138.5 382t353.5 151q68 0 115 -12.5t79 -25t62 -12.5q26 0 70 25t84 25q36 0 69 -33.5t33 -89.5v-1168q0 -27 19 -39t42.5 -12t42.5 -12t19 -39q0 -25 -66.5 -43.5t-158.5 -18.5q-96 0 -171 17.5t-75 44.5q0 28 14.5 41.5t35.5 15.5t42.5 3t36 10.5 t14.5 31.5v369q-96 -80 -170 -111.5t-178 -31.5q-198 0 -324.5 150.5t-126.5 381.5zM287 494q0 -149 77.5 -238.5t188.5 -89.5q139 0 223 100.5t84 268.5q0 153 -81.5 250.5t-205.5 97.5q-122 0 -204 -107t-82 -262v-20z" />
<glyph unicode="r" horiz-adv-x="942" d="M61 82q0 27 22.5 39t49.5 12.5t49.5 12t22.5 38.5v635q0 46 -12.5 79t-30.5 50t-36.5 28.5t-31 23t-12.5 24.5q0 24 38 42.5t85 18.5q74 0 121 -39t63 -104q63 78 117 110.5t129 32.5q106 0 176 -65.5t70 -159.5q0 -76 -54 -130t-131 -54q-29 0 -45 12.5t-16 28.5 q0 8 6.5 12.5t15.5 8.5t17.5 11.5t15 25t6.5 44.5q0 32 -29 57t-73 25q-184 0 -184 -307v-410q0 -27 19 -39t42 -11.5t42 -12t19 -39.5q0 -31 -67 -56.5t-158 -25.5q-92 0 -169 25.5t-77 56.5z" />
<glyph unicode="s" horiz-adv-x="1048" d="M127 240q0 61 40.5 100t102.5 39q31 0 57.5 -11.5t26.5 -33.5q0 -19 -21.5 -32t-21.5 -42q0 -60 75.5 -101.5t170.5 -41.5q108 0 166.5 40.5t58.5 116.5q0 41 -35 71.5t-91 50t-123.5 37.5t-135.5 40t-124 50.5t-91 76.5t-35 111q0 151 121 239t310 88q85 0 163 -25.5 t131.5 -78.5t53.5 -121q0 -61 -41 -102t-103 -41q-31 0 -56.5 13t-25.5 28q0 11 7 19t15.5 12.5t15.5 17t7 33.5q0 29 -31 48t-71.5 26t-85.5 7q-83 0 -144 -32t-61 -90q0 -32 35 -56.5t91.5 -42t124 -34.5t135.5 -42.5t124.5 -58.5t91.5 -89t35 -128q0 -152 -112.5 -240 t-298.5 -88q-121 0 -225 36.5t-165 98.5t-61 132z" />
<glyph unicode="t" horiz-adv-x="778" d="M61 926q0 32 52.5 67t111.5 35q0 116 47.5 201.5t96.5 85.5q29 0 45 -24.5t16 -57.5v-205h225q28 0 45 -21t17 -40q0 -45 -41 -74t-103 -29h-143v-512q0 -97 21.5 -140.5t80.5 -43.5q36 0 77 10t46 10q62 0 62 -61q0 -60 -63 -101.5t-142 -41.5q-124 0 -205.5 69 t-81.5 176v635h-102q-62 0 -62 62z" />
<glyph unicode="u" horiz-adv-x="1208" d="M61 1022q0 31 38.5 56.5t84.5 25.5q47 0 84 -16t59.5 -42t36.5 -61.5t19.5 -71t5.5 -75.5v-430q0 -124 49.5 -185t155.5 -61q88 0 167 79.5t79 180.5v416q0 46 -10.5 78t-26 46.5t-30.5 23.5t-25.5 17t-10.5 19q0 32 29.5 57t73.5 25q47 0 84 -16t59 -42t36 -61.5 t19.5 -71t5.5 -75.5v-574q0 -46 10.5 -78t26 -48t30.5 -27t25.5 -23.5t10.5 -28.5q0 -18 -30.5 -39.5t-72.5 -21.5q-85 0 -136 47t-68 117q-132 -164 -308 -164q-348 0 -348 410v430q0 39 -9 68t-23 44t-29.5 26t-29.5 16.5t-23 13t-9 16.5z" />
<glyph unicode="v" horiz-adv-x="1269" d="M61 981q0 33 62 57.5t164 23.5q118 0 192 -24.5t74 -56.5q0 -25 -20 -34.5t-44.5 -8t-44.5 -5t-20 -26.5q0 -16 4 -28l227 -738l248 738q4 10 4 24q0 20 -23.5 27.5t-51 6.5t-51 9t-23.5 35q0 33 65 57.5t181 23.5q100 0 152 -23.5t52 -57.5q0 -23 -10.5 -32t-27.5 -11.5 t-35.5 -6t-38 -21.5t-31.5 -52l-266 -737q-36 -123 -164 -123q-74 0 -111 29.5t-53 93.5q-15 45 -117 328t-149 409q-11 34 -30.5 52t-38 21.5t-36 5.5t-28.5 11.5t-11 32.5z" />
<glyph unicode="w" horiz-adv-x="1966" d="M61 983q0 33 62 57.5t164 24.5q118 0 192 -25t74 -57q0 -25 -20 -35t-43.5 -9t-43.5 -7t-20 -29q0 -6 4 -22l225 -738l234 727q0 34 -20.5 49.5t-45 16t-45 11t-20.5 36.5q0 33 65 57.5t181 24.5q68 0 156.5 -23.5t88.5 -58.5q0 -27 -19 -38.5t-42.5 -11t-42.5 -11.5 t-19 -41l226 -738l245 738l5 20q0 23 -23 31.5t-51 7t-51 8.5t-23 35q0 33 65 57.5t181 24.5q100 0 152.5 -24t52.5 -58q0 -23 -10.5 -32.5t-28 -12t-36 -6t-38 -21.5t-31.5 -51l-266 -737q-14 -53 -54 -88t-110 -35q-63 0 -106 31.5t-58 91.5q-5 11 -73 219.5t-113 314.5 l-182 -534q-40 -123 -164 -123q-74 0 -111 29.5t-53 93.5q-12 36 -264 737q-12 34 -31.5 52t-38.5 21.5t-36.5 6t-28.5 11.5t-11 32z" />
<glyph unicode="x" horiz-adv-x="1269" d="M61 88q0 18 18.5 25.5t44.5 9t60.5 18t59.5 49.5l291 388l-238 329q-25 34 -56.5 52.5t-54 22.5t-38 15t-15.5 33q0 32 70 57.5t174 24.5q118 0 192 -24.5t74 -57.5q0 -24 -21 -33.5t-46.5 -9t-46.5 -5t-21 -21.5q0 -12 12 -33l154 -209l166 209q20 26 20 39t-19 17 t-42.5 3.5t-42.5 9.5t-19 33q0 33 65 57.5t181 24.5q89 0 147 -24.5t58 -57.5q0 -24 -13.5 -30.5t-35 -5.5t-59.5 -20t-76 -67l-246 -307l286 -410q25 -36 57 -53.5t54 -18.5t37.5 -7t15.5 -23q0 -47 -62.5 -74.5t-182.5 -27.5q-101 0 -173.5 31.5t-72.5 64.5t59 33h23 q41 0 41 16q0 12 -21 39l-196 281l-213 -281q-21 -27 -21 -39q0 -16 41 -16h29q53 0 53 -33q0 -35 -66 -65.5t-180 -30.5q-92 0 -148.5 28t-56.5 74z" />
<glyph unicode="y" horiz-adv-x="1290" d="M61 -205q0 91 53.5 148t131.5 57q52 0 87.5 -21.5t35.5 -39.5q0 -17 -16 -27t-35.5 -15t-35.5 -25.5t-16 -55.5q0 -46 28.5 -74.5t74.5 -28.5q38 0 68.5 17.5t49.5 41t37 67t27 75t22 86.5l-327 881q-18 47 -35 64.5t-47 17.5q-62 0 -62 41q0 33 65 57t181 24t181 -24 t65 -57q0 -25 -20 -34.5t-44.5 -8t-44.5 -5t-20 -26.5q0 -11 6 -29l225 -635q68 163 226 635q2 6 2 19q0 31 -20.5 39t-67.5 8q-18 0 -29.5 2t-20 10.5t-8.5 24.5q0 33 65 57t181 24q89 0 147 -24.5t58 -56.5q0 -16 -16.5 -28.5t-45.5 -12.5q-11 0 -19 -1.5t-21.5 -8.5 t-24 -25t-17.5 -47l-395 -1106q-46 -107 -130 -166.5t-191 -59.5q-137 0 -222.5 69t-85.5 177z" />
<glyph unicode="z" horiz-adv-x="983" d="M61 66q0 27 21 57l532 758l-143 4q-77 0 -121.5 -8t-67.5 -30.5t-29.5 -50.5t-6.5 -79q0 -28 -21.5 -45t-40.5 -17q-47 0 -74.5 47.5t-27.5 137.5q0 87 46 138q45 50 155 50h4l225 -8l266 4h6q50 0 75 -16q26 -16 26 -43q0 -23 -25 -64l-512 -758l164 -4q68 0 112 6 t71.5 17t41 33.5t17.5 46.5t4 65q0 62 61 62q32 0 60.5 -48t42.5 -137q0 -82 -51.5 -136t-153.5 -54l-328 10l-225 -4q-50 0 -76.5 18.5t-26.5 47.5z" />
<glyph unicode="&#xa3;" horiz-adv-x="1333" d="M61 635q0 40 31 75t113 48q36 0 72 -5t53 -11l18 -5q-61 91 -61 226q0 185 122.5 307.5t307.5 122.5q156 0 262 -86t106 -222q0 -90 -66 -149t-159 -59q-54 0 -109 32.5t-55 69.5q0 35 33 35q9 0 30 -3t29 -3q37 0 65 27.5t28 70.5q0 61 -43 92t-121 31q-94 0 -159.5 -70 t-65.5 -176q0 -125 67.5 -185.5t218.5 -60.5h82q20 0 41 -11t21 -30q0 -45 -49 -87t-150 -42q-68 0 -170 27q61 -61 61 -184q0 -60 -19.5 -105.5t-82.5 -140.5q111 35 223 35q40 0 97.5 -5.5t74.5 -5.5q78 0 78 93q0 17 0.5 25.5t3.5 22.5t9 21.5t17.5 13t28.5 5.5 q36 0 69.5 -50t33.5 -135q0 -83 -52 -137.5t-153 -54.5l-717 8q-123 0 -123 82q0 29 12.5 45t28.5 16h41q109 15 167.5 77.5t58.5 168.5q0 69 -39 116.5t-96.5 67t-127.5 19.5q-86 0 -86 43z" />
<glyph unicode="&#xa8;" horiz-adv-x="819" d="M82 1333q0 47 41.5 85t101.5 38q46 0 84.5 -38.5t38.5 -84.5q0 -60 -38 -101.5t-85 -41.5q-61 0 -102 41t-41 102zM471 1333q0 47 41.5 85t101.5 38q46 0 84.5 -38.5t38.5 -84.5q0 -60 -38 -101.5t-85 -41.5q-62 0 -102.5 41t-40.5 102z" />
<glyph unicode="&#xab;" horiz-adv-x="1290" d="M117 618q0 28 32 56t70 47q85 40 151.5 88.5t102.5 89t63.5 75.5t49 55t43.5 20q15 0 28 -13t13 -28q0 -77 -80.5 -195.5t-186.5 -194.5q106 -76 186.5 -194t80.5 -195q0 -15 -13 -28t-28 -13q-22 0 -43.5 20t-49 55t-63.5 75.5t-102.5 89t-151.5 88.5q-39 19 -70.5 46.5 t-31.5 55.5zM649 618q0 28 32 56t71 47q85 40 151.5 88.5t102.5 89t63 75.5t48.5 55t43.5 20q15 0 28 -13t13 -28q0 -77 -80 -195.5t-186 -194.5q106 -76 186 -194t80 -195q0 -15 -13 -28t-28 -13q-22 0 -43.5 20t-48.5 55t-63 75.5t-102.5 89t-151.5 88.5q-39 19 -71 46.5 t-32 55.5z" />
<glyph unicode="&#xad;" horiz-adv-x="839" d="M61 586q0 43 47 72.5t97 29.5h491q33 0 57.5 -16t24.5 -45q0 -36 -33.5 -69.5t-89.5 -33.5h-512q-33 0 -57.5 16.5t-24.5 45.5z" />
<glyph unicode="&#xb4;" horiz-adv-x="696" d="M98 1184q0 16 17.5 35.5t51 48.5t73 67.5t91.5 109t99 157.5q17 31 25 42.5t26.5 21t46.5 9.5q32 0 57 -29t25 -73q0 -58 -56.5 -135.5t-133 -141.5t-156.5 -108.5t-125 -44.5q-15 0 -28 13t-13 28z" />
<glyph unicode="&#xb8;" horiz-adv-x="634" d="M104 -461q0 27 21 44.5t50.5 28.5t59.5 24t51 39.5t21 66.5q0 24 -15 35.5t-37 14t-43.5 5t-36.5 16t-15 40.5q0 32 38 55.5t103 23.5q83 0 141 -59t58 -143q0 -59 -26 -108t-66.5 -78.5t-86 -45.5t-88.5 -16q-129 0 -129 57z" />
<glyph unicode="&#xbb;" horiz-adv-x="1290" d="M117 229q0 77 80 195t186 194q-106 76 -186 194.5t-80 195.5q0 15 13 28t28 13q22 0 43.5 -20t48.5 -55t63 -75.5t102.5 -89t151.5 -88.5q39 -19 71 -47t32 -56t-32 -55.5t-71 -46.5q-85 -40 -151.5 -88.5t-102.5 -89t-63 -75.5t-48.5 -55t-43.5 -20q-15 0 -28 13t-13 28 zM649 229q0 77 80 195t186 194q-106 76 -186 194.5t-80 195.5q0 15 13 28t28 13q22 0 43.5 -20t49 -55t63.5 -75.5t102.5 -89t151.5 -88.5q38 -19 70 -47t32 -56t-31.5 -55.5t-70.5 -46.5q-85 -40 -151.5 -88.5t-102.5 -89t-63.5 -75.5t-49 -55t-43.5 -20q-15 0 -28 13 t-13 28z" />
<glyph unicode="&#xc0;" horiz-adv-x="1679" d="M94 41q0 34 16.5 46t43.5 13.5t56.5 6t61.5 33.5t52 85l346 979q4 12 4 17q0 19 -23.5 27t-51.5 9t-51.5 14t-23.5 40q0 57 86.5 79.5t241.5 22.5q391 0 391 -102q0 -29 -23.5 -42t-52 -14t-52 -12.5t-23.5 -38.5q0 -10 2 -16l290 -922q20 -62 46 -100t50.5 -49.5 t49 -16.5t42.5 -5t29 -12.5t11 -41.5q0 -42 -95.5 -62t-234.5 -20q-153 0 -250.5 19.5t-97.5 62.5q0 31 24 43.5t58 13.5t68.5 2t58.5 14.5t24 45.5q0 6 -94 332h-467l-110 -332q-4 -12 -4 -19q0 -20 24.5 -27.5t59 -8.5t69.5 -3.5t59.5 -17t24.5 -43.5q0 -43 -97.5 -62.5 t-250.5 -19.5q-144 0 -215.5 19t-71.5 63zM616 1985q0 44 25 73t57 29q22 0 36 -4t26 -15.5t18 -21t19 -33.5q47 -87 99 -157.5t91.5 -109t72.5 -67.5t50.5 -48.5t17.5 -35.5q0 -15 -13 -28t-28 -13q-45 0 -125 45t-156.5 108.5t-133 141.5t-56.5 136zM668 655h348l-164 553 z" />
<glyph unicode="&#xc1;" horiz-adv-x="1679" d="M94 41q0 34 16.5 46t43.5 13.5t56.5 6t61.5 33.5t52 85l346 979q4 12 4 17q0 19 -23.5 27t-51.5 9t-51.5 14t-23.5 40q0 57 86.5 79.5t241.5 22.5q391 0 391 -102q0 -29 -23.5 -42t-52 -14t-52 -12.5t-23.5 -38.5q0 -10 2 -16l290 -922q20 -62 46 -100t50.5 -49.5 t49 -16.5t42.5 -5t29 -12.5t11 -41.5q0 -42 -95.5 -62t-234.5 -20q-153 0 -250.5 19.5t-97.5 62.5q0 31 24 43.5t58 13.5t68.5 2t58.5 14.5t24 45.5q0 6 -94 332h-467l-110 -332q-4 -12 -4 -19q0 -20 24.5 -27.5t59 -8.5t69.5 -3.5t59.5 -17t24.5 -43.5q0 -43 -97.5 -62.5 t-250.5 -19.5q-144 0 -215.5 19t-71.5 63zM616 1595q0 16 17.5 35.5t51 48.5t73 67.5t91.5 109t99 157.5q13 24 19 33.5t18 21t26 15.5t36 4q32 0 56.5 -29t24.5 -73q0 -58 -56.5 -136t-133 -141.5t-156.5 -108.5t-125 -45q-15 0 -28 13t-13 28zM668 655h348l-164 553z" />
<glyph unicode="&#xc2;" horiz-adv-x="1679" d="M94 41q0 34 16.5 46t43.5 13.5t56.5 6t61.5 33.5t52 85l346 979q4 12 4 17q0 19 -23.5 27t-51.5 9t-51.5 14t-23.5 40q0 57 86.5 79.5t241.5 22.5q391 0 391 -102q0 -29 -23.5 -42t-52 -14t-52 -12.5t-23.5 -38.5q0 -10 2 -16l290 -922q20 -62 46 -100t50.5 -49.5 t49 -16.5t42.5 -5t29 -12.5t11 -41.5q0 -42 -95.5 -62t-234.5 -20q-153 0 -250.5 19.5t-97.5 62.5q0 31 24 43.5t58 13.5t68.5 2t58.5 14.5t24 45.5q0 6 -94 332h-467l-110 -332q-4 -12 -4 -19q0 -20 24.5 -27.5t59 -8.5t69.5 -3.5t59.5 -17t24.5 -43.5q0 -43 -97.5 -62.5 t-250.5 -19.5q-144 0 -215.5 19t-71.5 63zM436 1589q0 16 20 35.5t55 48t75.5 66.5t89 106.5t88.5 153.5q16 33 44.5 57.5t57.5 24.5t58 -24.5t45 -57.5q40 -85 88.5 -153.5t89 -106.5t75 -66.5t54.5 -48t20 -35.5q0 -15 -13 -28t-28 -13q-80 0 -197.5 71.5t-191.5 174.5 q-74 -103 -191.5 -174.5t-197.5 -71.5q-15 0 -28 13t-13 28zM668 655h348l-164 553z" />
<glyph unicode="&#xc3;" horiz-adv-x="1679" d="M94 41q0 34 16.5 46t43.5 13.5t56.5 6t61.5 33.5t52 85l346 979q4 12 4 17q0 19 -23.5 27t-51.5 9t-51.5 14t-23.5 40q0 57 86.5 79.5t241.5 22.5q391 0 391 -102q0 -29 -23.5 -42t-52 -14t-52 -12.5t-23.5 -38.5q0 -10 2 -16l290 -922q20 -62 46 -100t50.5 -49.5 t49 -16.5t42.5 -5t29 -12.5t11 -41.5q0 -42 -95.5 -62t-234.5 -20q-153 0 -250.5 19.5t-97.5 62.5q0 31 24 43.5t58 13.5t68.5 2t58.5 14.5t24 45.5q0 6 -94 332h-467l-110 -332q-4 -12 -4 -19q0 -20 24.5 -27.5t59 -8.5t69.5 -3.5t59.5 -17t24.5 -43.5q0 -43 -97.5 -62.5 t-250.5 -19.5q-144 0 -215.5 19t-71.5 63zM485 1796q0 45 38.5 83.5t90.5 58.5t99 20q69 0 154 -33t122 -33t74.5 19.5t68.5 39t50 19.5q27 0 46 -23t19 -53q0 -45 -54.5 -88.5t-120.5 -66.5t-111 -23q-55 0 -142.5 35t-124.5 35q-30 0 -59.5 -17t-54.5 -34t-43 -17 q-22 0 -37 23.5t-15 54.5zM668 655h348l-164 553z" />
<glyph unicode="&#xc4;" horiz-adv-x="1679" d="M94 41q0 34 16.5 46t43.5 13.5t56.5 6t61.5 33.5t52 85l346 979q4 12 4 17q0 19 -23.5 27t-51.5 9t-51.5 14t-23.5 40q0 57 86.5 79.5t241.5 22.5q391 0 391 -102q0 -29 -23.5 -42t-52 -14t-52 -12.5t-23.5 -38.5q0 -10 2 -16l290 -922q20 -62 46 -100t50.5 -49.5 t49 -16.5t42.5 -5t29 -12.5t11 -41.5q0 -42 -95.5 -62t-234.5 -20q-153 0 -250.5 19.5t-97.5 62.5q0 31 24 43.5t58 13.5t68.5 2t58.5 14.5t24 45.5q0 6 -94 332h-467l-110 -332q-4 -12 -4 -19q0 -20 24.5 -27.5t59 -8.5t69.5 -3.5t59.5 -17t24.5 -43.5q0 -43 -97.5 -62.5 t-250.5 -19.5q-144 0 -215.5 19t-71.5 63zM537 1745q0 47 41.5 85t101.5 38q46 0 84.5 -38.5t38.5 -84.5q0 -60 -38 -101.5t-85 -41.5q-62 0 -102.5 41t-40.5 102zM668 655h348l-164 553zM926 1745q0 47 41.5 85t101.5 38q46 0 84.5 -38.5t38.5 -84.5q0 -60 -38 -101.5 t-85 -41.5q-61 0 -102 41t-41 102z" />
<glyph unicode="&#xc5;" horiz-adv-x="1679" d="M94 41q0 34 16.5 46t43.5 13.5t56.5 6t61.5 33.5t52 85l346 979q4 12 4 17q0 19 -23.5 27t-51.5 9t-51.5 14t-23.5 40q0 57 86.5 79.5t241.5 22.5q391 0 391 -102q0 -29 -23.5 -42t-52 -14t-52 -12.5t-23.5 -38.5q0 -10 2 -16l290 -922q20 -62 46 -100t50.5 -49.5 t49 -16.5t42.5 -5t29 -12.5t11 -41.5q0 -42 -95.5 -62t-234.5 -20q-153 0 -250.5 19.5t-97.5 62.5q0 31 24 43.5t58 13.5t68.5 2t58.5 14.5t24 45.5q0 6 -94 332h-467l-110 -332q-4 -12 -4 -19q0 -20 24.5 -27.5t59 -8.5t69.5 -3.5t59.5 -17t24.5 -43.5q0 -43 -97.5 -62.5 t-250.5 -19.5q-144 0 -215.5 19t-71.5 63zM668 655h348l-164 553z" />
<glyph unicode="&#xc7;" horiz-adv-x="1431" d="M90 676q0 213 88 381t247 262t361 94q207 0 329 -101.5t122 -246.5q0 -108 -56.5 -177t-148.5 -69q-50 0 -86.5 16.5t-36.5 45.5q0 6 6 12.5t15 7.5q102 17 102 143q0 94 -59.5 149.5t-165.5 55.5q-214 0 -342.5 -152.5t-128.5 -400.5q0 -246 125 -399.5t325 -153.5 q151 0 250 78.5t99 188.5q0 48 -19 73t-63 29q-29 3 -29 20q0 9 8 21q42 61 123 61q79 0 131.5 -60.5t52.5 -164.5q0 -170 -164.5 -289.5t-408.5 -119.5q-193 0 -347 88t-241.5 247t-87.5 361zM608 -461q0 -57 129 -57q43 0 88.5 16t86 45.5t66.5 78.5t26 108q0 84 -58 143 t-141 59q-65 0 -103 -23.5t-38 -55.5q0 -27 15 -40.5t37 -16t43.5 -5t36.5 -14t15 -35.5q0 -40 -21 -66.5t-50.5 -39.5t-59.5 -24t-51 -28.5t-21 -44.5z" />
<glyph unicode="&#xc8;" horiz-adv-x="1413" d="M51 82q0 28 25 38t61 11.5t72 6t61 31t25 77.5v860q0 45 -23 67.5t-56 26.5t-66.5 6t-56.5 16t-23 48q0 42 94 62t233 20l328 -4q113 0 184.5 2t122.5 2q114 0 169.5 -59.5t55.5 -145.5q-15 -120 -45 -172.5t-77 -52.5q-28 0 -45 21t-17 40q0 66 -10.5 102t-48.5 61.5 t-104.5 33.5t-184.5 8q-56 0 -80.5 -0.5t-54 -4t-39 -8.5t-20 -17.5t-12 -28t-1.5 -42.5v-329h168q28 0 41.5 21t16.5 51t6.5 60.5t17 51.5t41.5 21q41 0 71.5 -89t30.5 -198q0 -99 -29 -182.5t-73 -83.5q-34 0 -45 32t-7.5 70t-6.5 70t-43 32h-189v-368q0 -21 3 -33.5 t15.5 -26.5t36.5 -21.5t67.5 -12.5t107.5 -5q112 0 176.5 8t104.5 31.5t53.5 60.5t13.5 101q0 19 16.5 40.5t44.5 21.5q47 0 75 -60t28 -166q0 -104 -62 -144t-205 -40h-594q-153 0 -250.5 19.5t-97.5 62.5zM485 1985q0 44 25 73t57 29q22 0 36 -4t26 -15.5t18 -21t19 -33.5 q47 -87 99 -157.5t91.5 -109t72.5 -67.5t50.5 -48.5t17.5 -35.5q0 -15 -13 -28t-28 -13q-45 0 -125 45t-156.5 108.5t-133 141.5t-56.5 136z" />
<glyph unicode="&#xc9;" horiz-adv-x="1413" d="M51 82q0 28 25 38t61 11.5t72 6t61 31t25 77.5v860q0 45 -23 67.5t-56 26.5t-66.5 6t-56.5 16t-23 48q0 42 94 62t233 20l328 -4q113 0 184.5 2t122.5 2q114 0 169.5 -59.5t55.5 -145.5q-15 -120 -45 -172.5t-77 -52.5q-28 0 -45 21t-17 40q0 66 -10.5 102t-48.5 61.5 t-104.5 33.5t-184.5 8q-56 0 -80.5 -0.5t-54 -4t-39 -8.5t-20 -17.5t-12 -28t-1.5 -42.5v-329h168q28 0 41.5 21t16.5 51t6.5 60.5t17 51.5t41.5 21q41 0 71.5 -89t30.5 -198q0 -99 -29 -182.5t-73 -83.5q-34 0 -45 32t-7.5 70t-6.5 70t-43 32h-189v-368q0 -21 3 -33.5 t15.5 -26.5t36.5 -21.5t67.5 -12.5t107.5 -5q112 0 176.5 8t104.5 31.5t53.5 60.5t13.5 101q0 19 16.5 40.5t44.5 21.5q47 0 75 -60t28 -166q0 -104 -62 -144t-205 -40h-594q-153 0 -250.5 19.5t-97.5 62.5zM485 1595q0 16 17.5 35.5t51 48.5t73 67.5t91.5 109t99 157.5 q17 31 25 42.5t26.5 21.5t46.5 10q32 0 57 -29t25 -73q0 -58 -56.5 -136t-133 -141.5t-156.5 -108.5t-125 -45q-15 0 -28 13t-13 28z" />
<glyph unicode="&#xca;" horiz-adv-x="1413" d="M51 82q0 28 25 38t61 11.5t72 6t61 31t25 77.5v860q0 45 -23 67.5t-56 26.5t-66.5 6t-56.5 16t-23 48q0 42 94 62t233 20l328 -4q113 0 184.5 2t122.5 2q114 0 169.5 -59.5t55.5 -145.5q-15 -120 -45 -172.5t-77 -52.5q-28 0 -45 21t-17 40q0 66 -10.5 102t-48.5 61.5 t-104.5 33.5t-184.5 8q-56 0 -80.5 -0.5t-54 -4t-39 -8.5t-20 -17.5t-12 -28t-1.5 -42.5v-329h168q28 0 41.5 21t16.5 51t6.5 60.5t17 51.5t41.5 21q41 0 71.5 -89t30.5 -198q0 -99 -29 -182.5t-73 -83.5q-34 0 -45 32t-7.5 70t-6.5 70t-43 32h-189v-368q0 -21 3 -33.5 t15.5 -26.5t36.5 -21.5t67.5 -12.5t107.5 -5q112 0 176.5 8t104.5 31.5t53.5 60.5t13.5 101q0 19 16.5 40.5t44.5 21.5q47 0 75 -60t28 -166q0 -104 -62 -144t-205 -40h-594q-153 0 -250.5 19.5t-97.5 62.5zM305 1589q0 16 20 35.5t55 48t75.5 66.5t89 106.5t88.5 153.5 q16 33 44.5 57.5t57.5 24.5t58 -24.5t45 -57.5q40 -85 88.5 -153.5t89 -106.5t75 -66.5t54.5 -48t20 -35.5q0 -15 -13 -28t-28 -13q-80 0 -197.5 71.5t-191.5 174.5q-74 -103 -191.5 -174.5t-197.5 -71.5q-15 0 -28 13t-13 28z" />
<glyph unicode="&#xcb;" horiz-adv-x="1413" d="M51 82q0 28 25 38t61 11.5t72 6t61 31t25 77.5v860q0 45 -23 67.5t-56 26.5t-66.5 6t-56.5 16t-23 48q0 42 94 62t233 20l328 -4q113 0 184.5 2t122.5 2q114 0 169.5 -59.5t55.5 -145.5q-15 -120 -45 -172.5t-77 -52.5q-28 0 -45 21t-17 40q0 66 -10.5 102t-48.5 61.5 t-104.5 33.5t-184.5 8q-56 0 -80.5 -0.5t-54 -4t-39 -8.5t-20 -17.5t-12 -28t-1.5 -42.5v-329h168q28 0 41.5 21t16.5 51t6.5 60.5t17 51.5t41.5 21q41 0 71.5 -89t30.5 -198q0 -99 -29 -182.5t-73 -83.5q-34 0 -45 32t-7.5 70t-6.5 70t-43 32h-189v-368q0 -21 3 -33.5 t15.5 -26.5t36.5 -21.5t67.5 -12.5t107.5 -5q112 0 176.5 8t104.5 31.5t53.5 60.5t13.5 101q0 19 16.5 40.5t44.5 21.5q47 0 75 -60t28 -166q0 -104 -62 -144t-205 -40h-594q-153 0 -250.5 19.5t-97.5 62.5zM406 1745q0 47 41.5 85t101.5 38q46 0 84.5 -38.5t38.5 -84.5 q0 -60 -38 -101.5t-85 -41.5q-61 0 -102 41t-41 102zM795 1745q0 47 41.5 85t101.5 38q46 0 84.5 -38.5t38.5 -84.5q0 -60 -38 -101.5t-85 -41.5q-62 0 -102.5 41t-40.5 102z" />
<glyph unicode="&#xcc;" horiz-adv-x="901" d="M109 61q0 33 23 46t56 14t66.5 6t56.5 33.5t23 85.5v901q0 57 -23 83.5t-56 29.5t-66.5 3t-56.5 14.5t-23 53.5q0 43 97.5 62.5t250.5 19.5q327 0 327 -82q0 -33 -23 -46t-56 -14t-66.5 -5.5t-56.5 -33t-23 -85.5v-901q0 -57 23 -85.5t56.5 -33.5t66.5 -6t56 -14t23 -46 q0 -81 -348 -81q-139 0 -233 19.5t-94 61.5zM215 1985q0 44 25 73t57 29q28 0 46.5 -10t26.5 -21.5t25 -42.5q47 -87 99 -157.5t91.5 -109t73 -67.5t51 -48.5t17.5 -35.5q0 -15 -13 -28t-28 -13q-45 0 -125 45t-156.5 108.5t-133 141.5t-56.5 136z" />
<glyph unicode="&#xcd;" horiz-adv-x="901" d="M109 61q0 33 23 46t56 14t66.5 6t56.5 33.5t23 85.5v901q0 57 -23 83.5t-56 29.5t-66.5 3t-56.5 14.5t-23 53.5q0 43 97.5 62.5t250.5 19.5q327 0 327 -82q0 -33 -23 -46t-56 -14t-66.5 -5.5t-56.5 -33t-23 -85.5v-901q0 -57 23 -85.5t56.5 -33.5t66.5 -6t56 -14t23 -46 q0 -81 -348 -81q-139 0 -233 19.5t-94 61.5zM215 1595q0 16 17.5 35.5t51 48.5t73 67.5t91.5 109t99 157.5q17 31 25 42.5t26.5 21.5t46.5 10q32 0 57 -29t25 -73q0 -58 -56.5 -136t-133 -141.5t-156.5 -108.5t-125 -45q-15 0 -28 13t-13 28z" />
<glyph unicode="&#xce;" horiz-adv-x="983" d="M61 1589q0 16 20 35.5t55 48t75.5 66.5t89 106.5t88.5 153.5q16 33 45 57.5t58 24.5t57.5 -24.5t44.5 -57.5q40 -85 88.5 -153.5t89 -106.5t75.5 -66.5t55 -48t20 -35.5q0 -15 -13 -28t-28 -13q-80 0 -197.5 71.5t-191.5 174.5q-73 -103 -191 -174.5t-199 -71.5 q-15 0 -28 13t-13 28zM135 61q0 33 23 46t56 14t66.5 6t56.5 33.5t23 85.5v901q0 57 -23 83.5t-56 29.5t-66.5 3t-56.5 14.5t-23 53.5q0 43 97.5 62.5t250.5 19.5q328 0 328 -82q0 -33 -23 -46t-56.5 -14t-66.5 -5.5t-56 -33t-23 -85.5v-901q0 -57 23 -85.5t56 -33.5 t66.5 -6t56.5 -14t23 -46q0 -81 -348 -81q-140 0 -234 19.5t-94 61.5z" />
<glyph unicode="&#xcf;" horiz-adv-x="901" d="M109 61q0 33 23 46t56 14t66.5 6t56.5 33.5t23 85.5v901q0 57 -23 83.5t-56 29.5t-66.5 3t-56.5 14.5t-23 53.5q0 43 97.5 62.5t250.5 19.5q327 0 327 -82q0 -33 -23 -46t-56 -14t-66.5 -5.5t-56.5 -33t-23 -85.5v-901q0 -57 23 -85.5t56.5 -33.5t66.5 -6t56 -14t23 -46 q0 -81 -348 -81q-139 0 -233 19.5t-94 61.5zM135 1745q0 47 42 85t102 38q46 0 84 -38.5t38 -84.5q0 -60 -37.5 -101.5t-84.5 -41.5q-62 0 -103 41t-41 102zM524 1745q0 47 42 85t102 38q46 0 84.5 -38.5t38.5 -84.5q0 -60 -38 -101.5t-85 -41.5q-62 0 -103 41t-41 102z" />
<glyph unicode="&#xd1;" horiz-adv-x="1617" d="M106 82q0 28 16.5 40.5t42 11.5t54.5 1.5t54.5 10t42 37.5t16.5 83v860q0 51 -23.5 77.5t-56.5 32.5t-66 9t-56.5 17.5t-23.5 48.5q0 82 308 82q49 0 88 -11t77.5 -39.5t63.5 -53t72 -75.5l436 -477v410q0 57 -23 83.5t-56.5 29.5t-66.5 3t-56 14.5t-23 53.5q0 82 327 82 q308 0 308 -82q0 -33 -23.5 -46t-56.5 -14t-66 -5.5t-56.5 -33t-23.5 -85.5v-901q0 -57 23.5 -85.5t56.5 -33.5t66 -6t56.5 -14t23.5 -46q0 -81 -328 -81q-307 0 -307 81q0 33 23 46t56 14t66.5 6t56.5 33.5t23 85.5v102q0 47 -19.5 82t-62.5 82l-553 614v-880 q0 -53 23 -80.5t56 -33t66.5 -7t56.5 -10t23 -33.5q0 -82 -327 -82q-136 0 -222 19.5t-86 62.5zM403 1796q0 45 38.5 83.5t90.5 58.5t99 20q69 0 154 -33t122 -33t74.5 19.5t68.5 39t50 19.5q27 0 46 -23t19 -53q0 -45 -54.5 -88.5t-120.5 -66.5t-111 -23q-55 0 -142.5 35 t-124.5 35q-30 0 -59.5 -17t-54.5 -34t-43 -17q-22 0 -37 23.5t-15 54.5z" />
<glyph unicode="&#xd2;" horiz-adv-x="1576" d="M102 717q0 152 51.5 281.5t143 220.5t221 142.5t281.5 51.5q193 0 347 -88t241.5 -247t87.5 -361q0 -203 -88 -366.5t-247.5 -257t-361.5 -93.5q-307 0 -491.5 197t-184.5 520zM348 696q0 -248 118.5 -390t332.5 -142q199 0 314.5 143t115.5 389q0 268 -119 410.5 t-311 142.5q-203 0 -327 -148t-124 -405zM526 1985q0 44 25 73t57 29q22 0 36 -4t26 -15.5t18 -21t19 -33.5q47 -87 99 -157.5t91.5 -109t72.5 -67.5t50.5 -48.5t17.5 -35.5q0 -15 -13 -28t-28 -13q-45 0 -125 45t-156.5 108.5t-133 141.5t-56.5 136z" />
<glyph unicode="&#xd3;" horiz-adv-x="1576" d="M102 717q0 152 51.5 281.5t143 220.5t221 142.5t281.5 51.5q193 0 347 -88t241.5 -247t87.5 -361q0 -203 -88 -366.5t-247.5 -257t-361.5 -93.5q-307 0 -491.5 197t-184.5 520zM348 696q0 -248 118.5 -390t332.5 -142q199 0 314.5 143t115.5 389q0 268 -119 410.5 t-311 142.5q-203 0 -327 -148t-124 -405zM526 1595q0 16 17.5 35.5t51 48.5t73 67.5t91.5 109t99 157.5q17 31 25 42.5t26.5 21.5t46.5 10q32 0 57 -29t25 -73q0 -58 -56.5 -136t-133 -141.5t-156.5 -108.5t-125 -45q-15 0 -28 13t-13 28z" />
<glyph unicode="&#xd4;" horiz-adv-x="1576" d="M102 717q0 152 51.5 281.5t143 220.5t221 142.5t281.5 51.5q193 0 347 -88t241.5 -247t87.5 -361q0 -203 -88 -366.5t-247.5 -257t-361.5 -93.5q-307 0 -491.5 197t-184.5 520zM346 1589q0 16 20 35.5t55 48t75.5 66.5t89 106.5t88.5 153.5q16 33 44.5 57.5t57.5 24.5 t58 -24.5t45 -57.5q40 -85 88.5 -153.5t89 -106.5t75 -66.5t54.5 -48t20 -35.5q0 -15 -13 -28t-28 -13q-80 0 -197.5 71.5t-191.5 174.5q-74 -103 -191.5 -174.5t-197.5 -71.5q-15 0 -28 13t-13 28zM348 696q0 -248 118.5 -390t332.5 -142q199 0 314.5 143t115.5 389 q0 268 -119 410.5t-311 142.5q-203 0 -327 -148t-124 -405z" />
<glyph unicode="&#xd5;" horiz-adv-x="1576" d="M102 717q0 152 51.5 281.5t143 220.5t221 142.5t281.5 51.5q193 0 347 -88t241.5 -247t87.5 -361q0 -203 -88 -366.5t-247.5 -257t-361.5 -93.5q-307 0 -491.5 197t-184.5 520zM348 696q0 -248 118.5 -390t332.5 -142q199 0 314.5 143t115.5 389q0 268 -119 410.5 t-311 142.5q-203 0 -327 -148t-124 -405zM395 1796q0 45 38.5 83.5t90.5 58.5t99 20q69 0 154 -33t122 -33t74.5 19.5t68.5 39t50 19.5q27 0 46 -23t19 -53q0 -45 -55 -88.5t-121 -66.5t-111 -23q-55 0 -142 35t-124 35q-38 0 -88.5 -34t-69.5 -34q-22 0 -36.5 23.5 t-14.5 54.5z" />
<glyph unicode="&#xd6;" horiz-adv-x="1576" d="M102 717q0 152 51.5 281.5t143 220.5t221 142.5t281.5 51.5q193 0 347 -88t241.5 -247t87.5 -361q0 -203 -88 -366.5t-247.5 -257t-361.5 -93.5q-307 0 -491.5 197t-184.5 520zM348 696q0 -248 118.5 -390t332.5 -142q199 0 314.5 143t115.5 389q0 268 -119 410.5 t-311 142.5q-203 0 -327 -148t-124 -405zM446 1745q0 47 42 85t102 38q46 0 84.5 -38.5t38.5 -84.5q0 -60 -38 -101.5t-85 -41.5q-62 0 -103 41t-41 102zM836 1745q0 47 41.5 85t101.5 38q46 0 84.5 -38.5t38.5 -84.5q0 -60 -38 -101.5t-85 -41.5q-61 0 -102 41t-41 102z " />
<glyph unicode="&#xd9;" horiz-adv-x="1638" d="M98 1309q0 42 103 62t245 20q153 0 251 -19.5t98 -62.5q0 -33 -25.5 -46t-61.5 -14t-72 -6t-61.5 -33.5t-25.5 -85.5v-675q0 -84 22 -142t65.5 -88.5t96 -43.5t123.5 -13q168 0 248 76t80 231v655q0 48 -18 76t-45.5 35.5t-59.5 11.5t-59.5 5t-45.5 15t-18 42 q0 82 328 82q327 0 327 -82q0 -33 -23 -46t-56.5 -14t-66.5 -6t-56 -33.5t-23 -85.5v-665q0 -234 -142.5 -358t-389.5 -124q-121 0 -234 40.5t-176 103.5q-62 62 -82 126t-20 202v675q0 57 -23.5 85.5t-56.5 33.5t-66 6t-56.5 14t-23.5 46zM592 1985q0 44 25 73t57 29 q28 0 46.5 -10t26.5 -21.5t25 -42.5q47 -87 99 -157.5t91.5 -109t73 -67.5t51 -48.5t17.5 -35.5q0 -15 -13 -28t-28 -13q-45 0 -125 45t-156.5 108.5t-133 141.5t-56.5 136z" />
<glyph unicode="&#xda;" horiz-adv-x="1638" d="M98 1309q0 42 103 62t245 20q153 0 251 -19.5t98 -62.5q0 -33 -25.5 -46t-61.5 -14t-72 -6t-61.5 -33.5t-25.5 -85.5v-675q0 -84 22 -142t65.5 -88.5t96 -43.5t123.5 -13q168 0 248 76t80 231v655q0 48 -18 76t-45.5 35.5t-59.5 11.5t-59.5 5t-45.5 15t-18 42 q0 82 328 82q327 0 327 -82q0 -33 -23 -46t-56.5 -14t-66.5 -6t-56 -33.5t-23 -85.5v-665q0 -234 -142.5 -358t-389.5 -124q-121 0 -234 40.5t-176 103.5q-62 62 -82 126t-20 202v675q0 57 -23.5 85.5t-56.5 33.5t-66 6t-56.5 14t-23.5 46zM592 1595q0 16 17.5 35.5t51 48.5 t73 67.5t91.5 109t99 157.5q17 31 25 42.5t26.5 21.5t46.5 10q32 0 57 -29t25 -73q0 -58 -56.5 -136t-133 -141.5t-156.5 -108.5t-125 -45q-15 0 -28 13t-13 28z" />
<glyph unicode="&#xdb;" horiz-adv-x="1638" d="M98 1309q0 42 103 62t245 20q153 0 251 -19.5t98 -62.5q0 -33 -25.5 -46t-61.5 -14t-72 -6t-61.5 -33.5t-25.5 -85.5v-675q0 -84 22 -142t65.5 -88.5t96 -43.5t123.5 -13q168 0 248 76t80 231v655q0 48 -18 76t-45.5 35.5t-59.5 11.5t-59.5 5t-45.5 15t-18 42 q0 82 328 82q327 0 327 -82q0 -33 -23 -46t-56.5 -14t-66.5 -6t-56 -33.5t-23 -85.5v-665q0 -234 -142.5 -358t-389.5 -124q-121 0 -234 40.5t-176 103.5q-62 62 -82 126t-20 202v675q0 57 -23.5 85.5t-56.5 33.5t-66 6t-56.5 14t-23.5 46zM412 1589q0 16 20 35.5t54.5 48 t75 66.5t89 106.5t88.5 153.5q16 33 45 57.5t58 24.5t57.5 -24.5t44.5 -57.5q40 -85 88.5 -153.5t89 -106.5t75.5 -66.5t55 -48t20 -35.5q0 -15 -13 -28t-28 -13q-80 0 -197.5 71.5t-191.5 174.5q-74 -103 -191.5 -174.5t-197.5 -71.5q-15 0 -28 13t-13 28z" />
<glyph unicode="&#xdc;" horiz-adv-x="1638" d="M98 1309q0 42 103 62t245 20q153 0 251 -19.5t98 -62.5q0 -33 -25.5 -46t-61.5 -14t-72 -6t-61.5 -33.5t-25.5 -85.5v-675q0 -84 22 -142t65.5 -88.5t96 -43.5t123.5 -13q168 0 248 76t80 231v655q0 48 -18 76t-45.5 35.5t-59.5 11.5t-59.5 5t-45.5 15t-18 42 q0 82 328 82q327 0 327 -82q0 -33 -23 -46t-56.5 -14t-66.5 -6t-56 -33.5t-23 -85.5v-665q0 -234 -142.5 -358t-389.5 -124q-121 0 -234 40.5t-176 103.5q-62 62 -82 126t-20 202v675q0 57 -23.5 85.5t-56.5 33.5t-66 6t-56.5 14t-23.5 46zM512 1745q0 47 41.5 85t101.5 38 q46 0 84.5 -38.5t38.5 -84.5q0 -60 -38 -101.5t-85 -41.5q-61 0 -102 41t-41 102zM901 1745q0 47 41.5 85t101.5 38q46 0 84.5 -38.5t38.5 -84.5q0 -60 -38 -101.5t-85 -41.5q-62 0 -102.5 41t-40.5 102z" />
<glyph unicode="&#xe0;" horiz-adv-x="1269" d="M190 285q0 121 76 194.5t232 112.5l82 20q158 32 207 58t49 86q0 72 -55.5 107.5t-139.5 35.5q-78 0 -131 -28.5t-53 -73.5q0 -22 9.5 -36.5t21 -19t21 -11t9.5 -15.5q0 -30 -27.5 -46t-74.5 -16q-76 0 -120 43.5t-44 120.5q0 108 113.5 177t296.5 69q389 0 389 -328 v-471q0 -46 10.5 -78t25.5 -46.5t30 -23.5t25.5 -17t10.5 -19q0 -32 -29 -57t-73 -25q-86 0 -127 37t-58 106q-68 -76 -144.5 -109.5t-182.5 -33.5q-164 0 -256.5 80t-92.5 207zM410 1573q0 44 25 73t57 29q28 0 46.5 -9.5t26.5 -21t25 -42.5q47 -87 99 -157.5t91.5 -109 t73 -67.5t51 -48.5t17.5 -35.5q0 -15 -13 -28t-28 -13q-45 0 -125 44.5t-156.5 108.5t-133 141.5t-56.5 135.5zM416 305q0 -63 44.5 -103t119.5 -40q126 0 195 81t69 246v41q-49 -34 -194 -67q-16 -4 -25 -6q-13 -4 -43.5 -11.5t-48.5 -12.5t-43 -16.5t-39 -25t-24.5 -35.5 t-10.5 -51z" />
<glyph unicode="&#xe1;" horiz-adv-x="1269" d="M190 285q0 121 76 194.5t232 112.5l82 20q158 32 207 58t49 86q0 72 -55.5 107.5t-139.5 35.5q-78 0 -131 -28.5t-53 -73.5q0 -22 9.5 -36.5t21 -19t21 -11t9.5 -15.5q0 -30 -27.5 -46t-74.5 -16q-76 0 -120 43.5t-44 120.5q0 108 113.5 177t296.5 69q389 0 389 -328 v-471q0 -46 10.5 -78t25.5 -46.5t30 -23.5t25.5 -17t10.5 -19q0 -32 -29 -57t-73 -25q-86 0 -127 37t-58 106q-68 -76 -144.5 -109.5t-182.5 -33.5q-164 0 -256.5 80t-92.5 207zM410 1184q0 16 17.5 35.5t50.5 48.5t72.5 67.5t91.5 109t99 157.5q17 30 25.5 42t27 21.5 t46.5 9.5q32 0 57 -29t25 -73q0 -58 -56.5 -135.5t-133 -141.5t-156.5 -108.5t-125 -44.5q-15 0 -28 13t-13 28zM416 305q0 -63 44.5 -103t119.5 -40q126 0 195 81t69 246v41q-49 -34 -194 -67q-16 -4 -25 -6q-13 -4 -43.5 -11.5t-48.5 -12.5t-43 -16.5t-39 -25t-24.5 -35.5 t-10.5 -51z" />
<glyph unicode="&#xe2;" horiz-adv-x="1269" d="M190 285q0 121 76 194.5t232 112.5l82 20q158 32 207 58t49 86q0 72 -55.5 107.5t-139.5 35.5q-78 0 -131 -28.5t-53 -73.5q0 -22 9.5 -36.5t21 -19t21 -11t9.5 -15.5q0 -30 -27.5 -46t-74.5 -16q-76 0 -120 43.5t-44 120.5q0 108 113.5 177t296.5 69q389 0 389 -328 v-471q0 -46 10.5 -78t25.5 -46.5t30 -23.5t25.5 -17t10.5 -19q0 -32 -29 -57t-73 -25q-86 0 -127 37t-58 106q-68 -76 -144.5 -109.5t-182.5 -33.5q-164 0 -256.5 80t-92.5 207zM229 1178q0 16 20 35.5t55 47.5t75.5 66t89 106.5t88.5 153.5q16 33 44.5 57.5t57.5 24.5 t58 -24.5t45 -57.5q40 -85 88.5 -153.5t89 -106.5t75.5 -66t55 -47.5t20 -35.5q0 -15 -13 -28t-28 -13q-81 0 -199 71t-191 174q-73 -103 -190.5 -174t-198.5 -71q-15 0 -28 13t-13 28zM416 305q0 -63 44.5 -103t119.5 -40q126 0 195 81t69 246v41q-49 -34 -194 -67 q-16 -4 -25 -6q-13 -4 -43.5 -11.5t-48.5 -12.5t-43 -16.5t-39 -25t-24.5 -35.5t-10.5 -51z" />
<glyph unicode="&#xe3;" horiz-adv-x="1269" d="M190 285q0 121 76 194.5t232 112.5l82 20q158 32 207 58t49 86q0 72 -55.5 107.5t-139.5 35.5q-78 0 -131 -28.5t-53 -73.5q0 -22 9.5 -36.5t21 -19t21 -11t9.5 -15.5q0 -30 -27.5 -46t-74.5 -16q-76 0 -120 43.5t-44 120.5q0 108 113.5 177t296.5 69q389 0 389 -328 v-471q0 -46 10.5 -78t25.5 -46.5t30 -23.5t25.5 -17t10.5 -19q0 -32 -29 -57t-73 -25q-86 0 -127 37t-58 106q-68 -76 -144.5 -109.5t-182.5 -33.5q-164 0 -256.5 80t-92.5 207zM279 1384q0 67 76 114.5t151 47.5q69 0 154 -32.5t122 -32.5t74.5 19.5t68.5 39t50 19.5 q27 0 46 -23t19 -53q0 -45 -54.5 -88.5t-120.5 -66.5t-111 -23q-55 0 -142.5 34.5t-124.5 34.5q-38 0 -88 -33.5t-69 -33.5q-22 0 -36.5 23t-14.5 54zM416 305q0 -63 44.5 -103t119.5 -40q126 0 195 81t69 246v41q-49 -34 -194 -67q-16 -4 -25 -6q-13 -4 -43.5 -11.5 t-48.5 -12.5t-43 -16.5t-39 -25t-24.5 -35.5t-10.5 -51z" />
<glyph unicode="&#xe4;" horiz-adv-x="1269" d="M190 285q0 121 76 194.5t232 112.5l82 20q158 32 207 58t49 86q0 72 -55.5 107.5t-139.5 35.5q-78 0 -131 -28.5t-53 -73.5q0 -22 9.5 -36.5t21 -19t21 -11t9.5 -15.5q0 -30 -27.5 -46t-74.5 -16q-76 0 -120 43.5t-44 120.5q0 108 113.5 177t296.5 69q389 0 389 -328 v-471q0 -46 10.5 -78t25.5 -46.5t30 -23.5t25.5 -17t10.5 -19q0 -32 -29 -57t-73 -25q-86 0 -127 37t-58 106q-68 -76 -144.5 -109.5t-182.5 -33.5q-164 0 -256.5 80t-92.5 207zM330 1333q0 47 41.5 85t101.5 38q46 0 84.5 -38.5t38.5 -84.5q0 -60 -38 -101.5t-85 -41.5 q-61 0 -102 41t-41 102zM416 305q0 -63 44.5 -103t119.5 -40q126 0 195 81t69 246v41q-49 -34 -194 -67q-16 -4 -25 -6q-13 -4 -43.5 -11.5t-48.5 -12.5t-43 -16.5t-39 -25t-24.5 -35.5t-10.5 -51zM719 1333q0 47 41.5 85t101.5 38q46 0 84.5 -38.5t38.5 -84.5 q0 -60 -38 -101.5t-85 -41.5q-62 0 -102.5 41t-40.5 102z" />
<glyph unicode="&#xe7;" horiz-adv-x="1208" d="M205 510q0 232 134.5 382t348.5 150q92 0 182 -30t149.5 -83t59.5 -112q0 -149 -155 -149q-16 0 -27.5 7t-11.5 19q0 4 7 22t7 44q0 56 -65.5 97.5t-145.5 41.5q-120 0 -189 -108t-69 -281q0 -172 72.5 -270.5t208.5 -98.5q91 0 145.5 40.5t54.5 103.5q0 20 -19.5 37 t-19.5 28q0 24 35 41t68 17q61 0 98 -41t37 -103q0 -107 -125.5 -186.5t-294.5 -79.5q-227 0 -356 139.5t-129 372.5zM412 -461q0 -57 129 -57q59 0 118 26t103.5 85t44.5 137q0 84 -58 143t-141 59q-65 0 -103 -23.5t-38 -55.5q0 -27 15 -40.5t36.5 -16t43.5 -5t37 -14 t15 -35.5q0 -40 -21 -66.5t-50.5 -39.5t-59 -24t-50.5 -28.5t-21 -44.5z" />
<glyph unicode="&#xe8;" d="M131 485q0 245 138 399t354 154q185 0 302 -90t148 -258q4 -36 4 -49q0 -73 -42 -104t-126 -31h-553v-41q0 -152 84 -240t224 -88q107 0 176 41t69 103q0 26 -20.5 47.5t-20.5 33.5q0 18 25 29.5t57 11.5q60 0 102 -37.5t42 -84.5q0 -80 -61 -146.5t-164.5 -103.5 t-225.5 -37q-229 0 -370.5 137t-141.5 354zM303 1573q0 44 25 73t57 29q28 0 46.5 -9.5t26.5 -21t25 -42.5q47 -87 99 -157.5t91.5 -109t73 -67.5t51 -48.5t17.5 -35.5q0 -15 -13 -28t-28 -13q-45 0 -125 44.5t-156.5 108.5t-133 141.5t-56.5 135.5zM377 649h491 q0 110 -60 178t-165 68q-195 0 -266 -246z" />
<glyph unicode="&#xe9;" d="M131 485q0 245 138 399t354 154q185 0 302 -90t148 -258q4 -36 4 -49q0 -73 -42 -104t-126 -31h-553v-41q0 -152 84 -240t224 -88q107 0 176 41t69 103q0 26 -20.5 47.5t-20.5 33.5q0 18 25 29.5t57 11.5q60 0 102 -37.5t42 -84.5q0 -80 -61 -146.5t-164.5 -103.5 t-225.5 -37q-229 0 -370.5 137t-141.5 354zM303 1184q0 16 17.5 35.5t51 48.5t73 67.5t91.5 109t99 157.5q17 31 25 42.5t26.5 21t46.5 9.5q32 0 57 -29t25 -73q0 -58 -56.5 -135.5t-133 -141.5t-156.5 -108.5t-125 -44.5q-15 0 -28 13t-13 28zM377 649h491q0 110 -60 178 t-165 68q-195 0 -266 -246z" />
<glyph unicode="&#xea;" d="M131 485q0 245 138 399t354 154q185 0 302 -90t148 -258q4 -36 4 -49q0 -73 -42 -104t-126 -31h-553v-41q0 -152 84 -240t224 -88q107 0 176 41t69 103q0 26 -20.5 47.5t-20.5 33.5q0 18 25 29.5t57 11.5q60 0 102 -37.5t42 -84.5q0 -80 -61 -146.5t-164.5 -103.5 t-225.5 -37q-229 0 -370.5 137t-141.5 354zM219 1178q0 16 20 35.5t55 47.5t75.5 66t89 106.5t88.5 153.5q16 33 44.5 57.5t57.5 24.5t58 -24.5t45 -57.5q40 -85 88.5 -153.5t89 -106.5t75 -66t54.5 -47.5t20 -35.5q0 -15 -13 -28t-28 -13q-81 0 -198.5 71t-190.5 174 q-73 -103 -190.5 -174t-198.5 -71q-15 0 -28 13t-13 28zM377 649h491q0 110 -60 178t-165 68q-195 0 -266 -246z" />
<glyph unicode="&#xeb;" d="M131 485q0 245 138 399t354 154q185 0 302 -90t148 -258q4 -36 4 -49q0 -73 -42 -104t-126 -31h-553v-41q0 -152 84 -240t224 -88q107 0 176 41t69 103q0 26 -20.5 47.5t-20.5 33.5q0 18 25 29.5t57 11.5q60 0 102 -37.5t42 -84.5q0 -80 -61 -146.5t-164.5 -103.5 t-225.5 -37q-229 0 -370.5 137t-141.5 354zM223 1333q0 47 42 85t102 38q46 0 84 -38.5t38 -84.5q0 -60 -37.5 -101.5t-84.5 -41.5q-62 0 -103 41t-41 102zM377 649h491q0 110 -60 178t-165 68q-195 0 -266 -246zM612 1333q0 47 42 85t102 38q46 0 84.5 -38.5t38.5 -84.5 q0 -60 -38 -101.5t-85 -41.5q-62 0 -103 41t-41 102z" />
<glyph unicode="&#xec;" horiz-adv-x="761" d="M37 1573q0 44 25 73t57 29q28 0 46.5 -9.5t26.5 -21t25 -42.5q47 -87 99 -157.5t91.5 -109t73 -67.5t51 -48.5t17.5 -35.5q0 -15 -13 -28t-28 -13q-45 0 -125 44.5t-156.5 108.5t-133 141.5t-56.5 135.5zM154 82q0 22 14.5 31.5t35.5 10.5t42.5 3t36 15.5t14.5 41.5v635 q0 46 -10.5 77t-25.5 44.5t-30 22t-25.5 18t-10.5 23.5q0 32 29 56.5t73 24.5q47 0 84 -16t59.5 -42t36.5 -61.5t19.5 -71t5.5 -75.5v-635q0 -34 19 -50t42.5 -16.5t42.5 -8t19 -27.5q0 -31 -67.5 -56.5t-158.5 -25.5q-92 0 -168.5 25.5t-76.5 56.5z" />
<glyph unicode="&#xed;" horiz-adv-x="761" d="M98 1184q0 16 17.5 35.5t51 48.5t73 67.5t91.5 109t99 157.5q17 31 25 42.5t26.5 21t46.5 9.5q32 0 57 -29t25 -73q0 -58 -56.5 -135.5t-133 -141.5t-156.5 -108.5t-125 -44.5q-15 0 -28 13t-13 28zM154 82q0 22 14.5 31.5t35.5 10.5t42.5 3t36 15.5t14.5 41.5v635 q0 46 -10.5 77t-25.5 44.5t-30 22t-25.5 18t-10.5 23.5q0 32 29 56.5t73 24.5q47 0 84 -16t59.5 -42t36.5 -61.5t19.5 -71t5.5 -75.5v-635q0 -34 19 -50t42.5 -16.5t42.5 -8t19 -27.5q0 -31 -67.5 -56.5t-158.5 -25.5q-92 0 -168.5 25.5t-76.5 56.5z" />
<glyph unicode="&#xee;" horiz-adv-x="983" d="M61 1178q0 16 20 35.5t55 47.5t75.5 66t89 106.5t88.5 153.5q16 33 45 57.5t58 24.5t57.5 -24.5t44.5 -57.5q40 -85 88.5 -153.5t89 -106.5t75.5 -66t55 -47.5t20 -35.5q0 -15 -13 -28t-28 -13q-81 0 -198.5 71t-190.5 174q-73 -103 -191 -174t-199 -71q-15 0 -28 13 t-13 28zM297 82q0 22 14.5 31.5t35.5 10.5t42.5 3t36 15.5t14.5 41.5v635q0 46 -10.5 77t-25.5 44.5t-30 22t-25.5 18t-10.5 23.5q0 32 29 56.5t73 24.5q47 0 84 -16t59.5 -42t36.5 -61.5t19.5 -71t5.5 -75.5v-635q0 -34 19 -50t42.5 -16.5t42.5 -8t19 -27.5 q0 -31 -67 -56.5t-158 -25.5q-92 0 -169 25.5t-77 56.5z" />
<glyph unicode="&#xef;" horiz-adv-x="825" d="M82 1333q0 47 41.5 85t101.5 38q46 0 84.5 -38.5t38.5 -84.5q0 -60 -38 -101.5t-85 -41.5q-61 0 -102 41t-41 102zM217 82q0 22 14.5 31.5t35.5 10.5t42.5 3t36 15.5t14.5 41.5v635q0 46 -10.5 77t-25.5 44.5t-30 22t-25.5 18t-10.5 23.5q0 32 29 56.5t73 24.5 q47 0 84 -16t59.5 -42t36.5 -61.5t19.5 -71t5.5 -75.5v-635q0 -34 19 -50t42.5 -16.5t42.5 -8t19 -27.5q0 -31 -67 -56.5t-158 -25.5q-92 0 -169 25.5t-77 56.5zM471 1333q0 47 41.5 85t101.5 38q46 0 84.5 -38.5t38.5 -84.5q0 -60 -38 -101.5t-85 -41.5q-62 0 -102.5 41 t-40.5 102z" />
<glyph unicode="&#xf1;" horiz-adv-x="1413" d="M203 80q0 27 19 39t42.5 12t42.5 12t19 39v656q0 40 -10.5 69t-26 44t-30.5 26t-25.5 21.5t-10.5 23.5q0 32 29.5 57t73.5 25q87 0 137.5 -50.5t66.5 -133.5q59 88 134.5 125.5t173.5 37.5q134 0 225 -61q76 -61 99.5 -125t23.5 -203v-409q0 -46 12.5 -78t31 -48 t36.5 -27t30.5 -23.5t12.5 -28.5q0 -17 -40 -39.5t-83 -22.5q-205 0 -205 246v410q0 124 -49.5 185t-155.5 61q-108 0 -177 -78t-69 -189v-471q0 -27 22.5 -39t49.5 -12t49.5 -12t22.5 -39q0 -32 -71 -57t-175 -25q-90 0 -157.5 25.5t-67.5 56.5zM338 1384q0 67 76 114.5 t151 47.5q69 0 154.5 -32.5t122.5 -32.5t74.5 19.5t68 39t49.5 19.5q27 0 46.5 -23t19.5 -53q0 -45 -55 -88.5t-121 -66.5t-111 -23q-55 0 -142 34.5t-124 34.5q-38 0 -88.5 -33.5t-69.5 -33.5q-22 0 -36.5 23t-14.5 54z" />
<glyph unicode="&#xf2;" horiz-adv-x="1331" d="M154 520q0 232 142 382.5t370 150.5q232 0 372 -144.5t140 -388.5t-140 -388t-372 -144t-372 144t-140 388zM379 520q0 -171 75.5 -269.5t211.5 -98.5q125 0 205.5 101t80.5 267q0 171 -75 270t-211 99q-125 0 -206 -101.5t-81 -267.5zM449 1573q0 44 24.5 73t56.5 29 q41 0 58 -15t41 -58q47 -87 99 -157.5t91.5 -109t73 -67.5t51 -48.5t17.5 -35.5q0 -15 -13 -28t-28 -13q-45 0 -125 44.5t-156.5 108.5t-133 141.5t-56.5 135.5z" />
<glyph unicode="&#xf3;" horiz-adv-x="1331" d="M154 520q0 232 142 382.5t370 150.5q232 0 372 -144.5t140 -388.5t-140 -388t-372 -144t-372 144t-140 388zM379 520q0 -171 75.5 -269.5t211.5 -98.5q125 0 205.5 101t80.5 267q0 171 -75 270t-211 99q-125 0 -206 -101.5t-81 -267.5zM449 1184q0 16 17.5 35.5 t50.5 48.5t72.5 67.5t91.5 109t99 157.5q17 30 25.5 42t27 21.5t46.5 9.5q32 0 57 -29t25 -73q0 -58 -56.5 -135.5t-133 -141.5t-157 -108.5t-125.5 -44.5q-15 0 -27.5 13t-12.5 28z" />
<glyph unicode="&#xf4;" horiz-adv-x="1331" d="M154 520q0 232 142 382.5t370 150.5q232 0 372 -144.5t140 -388.5t-140 -388t-372 -144t-372 144t-140 388zM268 1178q0 16 20 35.5t55 47.5t75.5 66t89 106.5t88.5 153.5q16 33 44.5 57.5t57.5 24.5t58 -24.5t45 -57.5q40 -85 88.5 -153.5t89 -106.5t75 -66t54.5 -47.5 t20 -35.5q0 -15 -13 -28t-28 -13q-81 0 -198.5 71t-190.5 174q-73 -103 -190.5 -174t-198.5 -71q-15 0 -28 13t-13 28zM379 520q0 -171 75.5 -269.5t211.5 -98.5q125 0 205.5 101t80.5 267q0 171 -75 270t-211 99q-125 0 -206 -101.5t-81 -267.5z" />
<glyph unicode="&#xf5;" horiz-adv-x="1331" d="M154 520q0 232 142 382.5t370 150.5q232 0 372 -144.5t140 -388.5t-140 -388t-372 -144t-372 144t-140 388zM317 1384q0 45 38.5 83.5t90.5 58.5t99 20q69 0 154 -32.5t122 -32.5t74.5 19.5t68.5 39t50 19.5q27 0 46 -23t19 -53q0 -45 -54.5 -88.5t-120.5 -66.5t-111 -23 q-55 0 -142.5 34.5t-124.5 34.5q-38 0 -88 -33.5t-69 -33.5q-22 0 -37 23.5t-15 53.5zM379 520q0 -171 75.5 -269.5t211.5 -98.5q125 0 205.5 101t80.5 267q0 171 -75 270t-211 99q-125 0 -206 -101.5t-81 -267.5z" />
<glyph unicode="&#xf6;" horiz-adv-x="1331" d="M154 520q0 232 142 382.5t370 150.5q232 0 372 -144.5t140 -388.5t-140 -388t-372 -144t-372 144t-140 388zM369 1333q0 47 41.5 85t101.5 38q46 0 84.5 -38.5t38.5 -84.5q0 -60 -38 -101.5t-85 -41.5q-62 0 -102.5 41t-40.5 102zM379 520q0 -171 75.5 -269.5 t211.5 -98.5q125 0 205.5 101t80.5 267q0 171 -75 270t-211 99q-125 0 -206 -101.5t-81 -267.5zM758 1333q0 47 41.5 85t101.5 38q46 0 84.5 -38.5t38.5 -84.5q0 -60 -38 -101.5t-85 -41.5q-61 0 -102 41t-41 102z" />
<glyph unicode="&#xf9;" horiz-adv-x="1392" d="M199 1022q0 31 38.5 56.5t84.5 25.5q47 0 84 -16t59 -42t36 -61.5t19.5 -71t5.5 -75.5v-430q0 -124 49.5 -185t155.5 -61q88 0 167 79.5t79 180.5v416q0 46 -10.5 78t-25.5 46.5t-30.5 23.5t-26 17t-10.5 19q0 32 29.5 57t73.5 25q47 0 84 -16t59.5 -42t36.5 -61.5 t19.5 -71t5.5 -75.5v-574q0 -46 10.5 -78t25.5 -48t30 -27t25.5 -23.5t10.5 -28.5q0 -18 -30 -39.5t-72 -21.5q-86 0 -137 47t-68 117q-132 -164 -307 -164q-348 0 -348 410v430q0 46 -12.5 78t-31 46.5t-36.5 23.5t-30.5 17t-12.5 19zM438 1573q0 44 25 73t57 29 q28 0 46.5 -9.5t26.5 -21t25 -42.5q47 -87 99 -157.5t91.5 -109t73 -67.5t51 -48.5t17.5 -35.5q0 -15 -13 -28t-28 -13q-45 0 -125 44.5t-156.5 108.5t-133 141.5t-56.5 135.5z" />
<glyph unicode="&#xfa;" horiz-adv-x="1392" d="M199 1022q0 31 38.5 56.5t84.5 25.5q47 0 84 -16t59 -42t36 -61.5t19.5 -71t5.5 -75.5v-430q0 -124 49.5 -185t155.5 -61q88 0 167 79.5t79 180.5v416q0 46 -10.5 78t-25.5 46.5t-30.5 23.5t-26 17t-10.5 19q0 32 29.5 57t73.5 25q47 0 84 -16t59.5 -42t36.5 -61.5 t19.5 -71t5.5 -75.5v-574q0 -46 10.5 -78t25.5 -48t30 -27t25.5 -23.5t10.5 -28.5q0 -18 -30 -39.5t-72 -21.5q-86 0 -137 47t-68 117q-132 -164 -307 -164q-348 0 -348 410v430q0 46 -12.5 78t-31 46.5t-36.5 23.5t-30.5 17t-12.5 19zM438 1184q0 16 17.5 35.5t51 48.5 t73 67.5t91.5 109t99 157.5q17 31 25 42.5t26.5 21t46.5 9.5q32 0 57 -29t25 -73q0 -58 -56.5 -135.5t-133 -141.5t-156.5 -108.5t-125 -44.5q-15 0 -28 13t-13 28z" />
<glyph unicode="&#xfb;" horiz-adv-x="1392" d="M199 1022q0 31 38.5 56.5t84.5 25.5q47 0 84 -16t59 -42t36 -61.5t19.5 -71t5.5 -75.5v-430q0 -124 49.5 -185t155.5 -61q88 0 167 79.5t79 180.5v416q0 46 -10.5 78t-25.5 46.5t-30.5 23.5t-26 17t-10.5 19q0 32 29.5 57t73.5 25q47 0 84 -16t59.5 -42t36.5 -61.5 t19.5 -71t5.5 -75.5v-574q0 -46 10.5 -78t25.5 -48t30 -27t25.5 -23.5t10.5 -28.5q0 -18 -30 -39.5t-72 -21.5q-86 0 -137 47t-68 117q-132 -164 -307 -164q-348 0 -348 410v430q0 46 -12.5 78t-31 46.5t-36.5 23.5t-30.5 17t-12.5 19zM258 1178q0 16 20 35.5t55 47.5 t75.5 66t89 106.5t88.5 153.5q16 33 44.5 57.5t57.5 24.5t58 -24.5t45 -57.5q40 -85 88.5 -153.5t89 -106.5t75 -66t54.5 -47.5t20 -35.5q0 -15 -13 -28t-28 -13q-81 0 -198.5 71t-190.5 174q-73 -103 -190.5 -174t-198.5 -71q-15 0 -28 13t-13 28z" />
<glyph unicode="&#xfc;" horiz-adv-x="1392" d="M199 1022q0 31 38.5 56.5t84.5 25.5q47 0 84 -16t59 -42t36 -61.5t19.5 -71t5.5 -75.5v-430q0 -124 49.5 -185t155.5 -61q88 0 167 79.5t79 180.5v416q0 46 -10.5 78t-25.5 46.5t-30.5 23.5t-26 17t-10.5 19q0 32 29.5 57t73.5 25q47 0 84 -16t59.5 -42t36.5 -61.5 t19.5 -71t5.5 -75.5v-574q0 -46 10.5 -78t25.5 -48t30 -27t25.5 -23.5t10.5 -28.5q0 -18 -30 -39.5t-72 -21.5q-86 0 -137 47t-68 117q-132 -164 -307 -164q-348 0 -348 410v430q0 46 -12.5 78t-31 46.5t-36.5 23.5t-30.5 17t-12.5 19zM358 1333q0 47 42 85t102 38 q46 0 84.5 -38.5t38.5 -84.5q0 -60 -38 -101.5t-85 -41.5q-62 0 -103 41t-41 102zM748 1333q0 47 41.5 85t101.5 38q46 0 84.5 -38.5t38.5 -84.5q0 -60 -38 -101.5t-85 -41.5q-61 0 -102 41t-41 102z" />
<glyph unicode="&#xfd;" horiz-adv-x="1474" d="M166 -205q0 91 53 148t131 57q52 0 87.5 -21.5t35.5 -39.5q0 -17 -16 -27t-35 -15t-35 -25.5t-16 -55.5q0 -46 28 -74.5t74 -28.5q38 0 68.5 17.5t50 41t37 67t27 75.5t22.5 86l-328 881q-18 47 -35 64.5t-47 17.5q-61 0 -61 41q0 33 65 57t181 24t180.5 -24t64.5 -57 q0 -25 -20 -34.5t-44.5 -8t-44.5 -5t-20 -26.5q0 -11 6 -29l226 -635q67 163 225 635q2 6 2 19q0 31 -20.5 39t-67.5 8q-28 0 -42.5 7t-14.5 30q0 33 64.5 57t180.5 24q89 0 147 -24.5t58 -56.5q0 -16 -16 -28.5t-45 -12.5q-11 0 -19 -1.5t-21.5 -8.5t-24 -25t-17.5 -47 l-395 -1106q-46 -107 -130.5 -166.5t-191.5 -59.5q-137 0 -222 69t-85 177zM584 1184q0 16 17.5 35.5t50.5 48.5t72.5 67.5t91.5 109t99 157.5q17 30 25.5 42t27 21.5t46.5 9.5q32 0 57 -29t25 -73q0 -58 -56.5 -135.5t-133 -141.5t-156.5 -108.5t-125 -44.5q-15 0 -28 13 t-13 28z" />
<glyph unicode="&#xff;" horiz-adv-x="1474" d="M166 -205q0 91 53 148t131 57q52 0 87.5 -21.5t35.5 -39.5q0 -17 -16 -27t-35 -15t-35 -25.5t-16 -55.5q0 -46 28 -74.5t74 -28.5q38 0 68.5 17.5t50 41t37 67t27 75.5t22.5 86l-328 881q-18 47 -35 64.5t-47 17.5q-61 0 -61 41q0 33 65 57t181 24t180.5 -24t64.5 -57 q0 -25 -20 -34.5t-44.5 -8t-44.5 -5t-20 -26.5q0 -11 6 -29l226 -635q67 163 225 635q2 6 2 19q0 31 -20.5 39t-67.5 8q-28 0 -42.5 7t-14.5 30q0 33 64.5 57t180.5 24q89 0 147 -24.5t58 -56.5q0 -16 -16 -28.5t-45 -12.5q-11 0 -19 -1.5t-21.5 -8.5t-24 -25t-17.5 -47 l-395 -1106q-46 -107 -130.5 -166.5t-191.5 -59.5q-137 0 -222 69t-85 177zM506 1333q0 47 41.5 85t101.5 38q46 0 84.5 -38.5t38.5 -84.5q0 -60 -38 -101.5t-85 -41.5q-61 0 -102 41t-41 102zM895 1333q0 47 41.5 85t101.5 38q46 0 84.5 -38.5t38.5 -84.5q0 -60 -38 -101.5 t-85 -41.5q-62 0 -102.5 41t-40.5 102z" />
<glyph unicode="&#x2c6;" horiz-adv-x="983" d="M61 1178q0 16 20 35.5t55 47.5t75.5 66t89 106.5t88.5 153.5q16 33 45 57.5t58 24.5t57.5 -24.5t44.5 -57.5q40 -85 88.5 -153.5t89 -106.5t75.5 -66t55 -47.5t20 -35.5q0 -15 -13 -28t-28 -13q-81 0 -198.5 71t-190.5 174q-73 -103 -191 -174t-199 -71q-15 0 -28 13 t-13 28z" />
<glyph unicode="&#x2dc;" horiz-adv-x="1105" d="M172 1384q0 67 76 114.5t151 47.5q69 0 154.5 -32.5t122.5 -32.5t74.5 19.5t68 39t49.5 19.5q27 0 46.5 -23t19.5 -53q0 -45 -55 -88.5t-121 -66.5t-111 -23q-55 0 -142 34.5t-124 34.5q-38 0 -88.5 -33.5t-69.5 -33.5q-22 0 -36.5 23t-14.5 54z" />
<glyph unicode="&#x2000;" horiz-adv-x="1043" />
<glyph unicode="&#x2001;" horiz-adv-x="2087" />
<glyph unicode="&#x2002;" horiz-adv-x="1043" />
<glyph unicode="&#x2003;" horiz-adv-x="2087" />
<glyph unicode="&#x2004;" horiz-adv-x="695" />
<glyph unicode="&#x2005;" horiz-adv-x="521" />
<glyph unicode="&#x2006;" horiz-adv-x="347" />
<glyph unicode="&#x2007;" horiz-adv-x="347" />
<glyph unicode="&#x2008;" horiz-adv-x="260" />
<glyph unicode="&#x2009;" horiz-adv-x="417" />
<glyph unicode="&#x200a;" horiz-adv-x="115" />
<glyph unicode="&#x2010;" horiz-adv-x="839" d="M61 586q0 43 47 72.5t97 29.5h491q33 0 57.5 -16t24.5 -45q0 -36 -33.5 -69.5t-89.5 -33.5h-512q-33 0 -57.5 16.5t-24.5 45.5z" />
<glyph unicode="&#x2011;" horiz-adv-x="839" d="M61 586q0 43 47 72.5t97 29.5h491q33 0 57.5 -16t24.5 -45q0 -36 -33.5 -69.5t-89.5 -33.5h-512q-33 0 -57.5 16.5t-24.5 45.5z" />
<glyph unicode="&#x2012;" horiz-adv-x="839" d="M61 586q0 43 47 72.5t97 29.5h491q33 0 57.5 -16t24.5 -45q0 -36 -33.5 -69.5t-89.5 -33.5h-512q-33 0 -57.5 16.5t-24.5 45.5z" />
<glyph unicode="&#x2013;" horiz-adv-x="1146" d="M61 586q0 43 67 72.5t139 29.5h701q47 0 82 -16t35 -45q0 -36 -48 -69.5t-128 -33.5h-731q-47 0 -82 16.5t-35 45.5z" />
<glyph unicode="&#x2014;" horiz-adv-x="2170" d="M61 586q0 43 134 72.5t277 29.5h1403q94 0 164 -16t70 -45q0 -36 -95.5 -69.5t-255.5 -33.5h-1463q-94 0 -164 16.5t-70 45.5z" />
<glyph unicode="&#x2018;" horiz-adv-x="583" d="M139 1188q0 45 26 102.5t72.5 101.5t96.5 44q16 0 33.5 -13.5t17.5 -31.5q0 -29 -27 -57.5t-28 -51.5q45 0 78.5 -38t33.5 -85q0 -61 -42 -103t-103 -42q-68 0 -113 50t-45 124z" />
<glyph unicode="&#x2019;" horiz-adv-x="583" d="M139 1223q0 61 42 103t104 42q68 0 112.5 -50t44.5 -124q0 -45 -25.5 -102.5t-72 -101.5t-96.5 -44q-16 0 -33.5 13.5t-17.5 31.5q0 29 27 57.5t28 51.5q-45 0 -79 38t-34 85z" />
<glyph unicode="&#x201c;" horiz-adv-x="1107" d="M203 1188q0 45 25.5 102.5t72 101.5t96.5 44q17 0 34.5 -13.5t17.5 -31.5q0 -29 -27.5 -57.5t-28.5 -51.5q45 0 79 -38t34 -85q0 -61 -42 -103t-104 -42q-68 0 -112.5 50t-44.5 124zM635 1188q0 45 25.5 102.5t72 101.5t96.5 44q17 0 34.5 -13.5t17.5 -31.5 q0 -29 -27.5 -57.5t-28.5 -51.5q45 0 79 -38t34 -85q0 -61 -42 -103t-103 -42q-68 0 -113 50t-45 124z" />
<glyph unicode="&#x201d;" horiz-adv-x="1091" d="M131 1278q0 62 41.5 103.5t103.5 41.5q68 0 113 -50t45 -124q0 -45 -25.5 -102.5t-72 -101.5t-96.5 -44q-16 0 -34 14t-18 32q0 29 27.5 57t28.5 51q-45 0 -79 38t-34 85zM563 1278q0 61 42 103t104 42q68 0 112.5 -50t44.5 -124q0 -45 -25.5 -102.5t-72 -101.5 t-96.5 -44q-16 0 -33.5 14t-17.5 32q0 29 27 57t28 51q-45 0 -79 38t-34 85z" />
<glyph unicode="&#x202f;" horiz-adv-x="417" />
<glyph unicode="&#x205f;" horiz-adv-x="521" />
<glyph unicode="&#x20ac;" horiz-adv-x="1839" d="M61 625q0 87 94.5 152t209.5 65q53 0 92 -25v82q0 93 45 184t123 164t195 118.5t251 45.5q135 0 245.5 -39t178.5 -119.5t68 -189.5q0 -94 -67.5 -170t-158.5 -76q-43 0 -83 22.5t-40 39.5q0 18 25 32q3 2 10 6l6 3q27 16 39 25t30.5 26.5t26 40t7.5 51.5q0 91 -70 137.5 t-196 46.5h-41h-21q-132 -14 -230 -99t-98 -167q0 -51 8.5 -95.5t29 -87t60 -67t95.5 -24.5q39 0 82.5 27.5t54.5 27.5q28 0 46 -20.5t18 -47.5q0 -55 -44.5 -98.5t-105.5 -64.5t-121 -21q-123 0 -184 61q6 -66 22.5 -124t49.5 -115.5t79.5 -98.5t118 -66.5t160.5 -25.5 q138 0 243 80t105 187q0 30 -24.5 60t-57.5 42q-18 6 -30.5 16t-12.5 19q0 32 39.5 49.5t85.5 17.5q91 0 138 -58.5t47 -166.5q0 -111 -73.5 -205.5t-201 -149.5t-278.5 -55q-144 0 -252 30.5t-185 94.5t-128 152.5t-87 214.5q-28 96 -51 128q-31 41 -78 42q-30 0 -79 -38 t-80 -38q-22 0 -36 16.5t-14 45.5z" />
<glyph unicode="&#xe000;" horiz-adv-x="1116" d="M0 0v1116h1116v-1116h-1116z" />
</font>
</defs>
</svg>
